<?xml version="1.0" encoding="UTF-8"?>
<!DOCTYPE svg PUBLIC "-//W3C//DTD SVG 1.1//EN" "http://www.w3.org/Graphics/SVG/1.1/DTD/svg11.dtd">
<!-- Creator: CorelDRAW -->
<svg xmlns="http://www.w3.org/2000/svg" xml:space="preserve" width="73.66mm" height="44.0266mm" version="1.1" style="shape-rendering:geometricPrecision; text-rendering:geometricPrecision; image-rendering:optimizeQuality; fill-rule:evenodd; clip-rule:evenodd"
viewBox="0 0 7366 4402.66"
 xmlns:xlink="http://www.w3.org/1999/xlink"
 xmlns:xodm="http://www.corel.com/coreldraw/odm/2003">
 <defs>
  <style type="text/css">
   <![CDATA[
    .fil2 {fill:none}
    .fil0 {fill:#96B52E}
    .fil3 {fill:#553059;fill-rule:nonzero}
    .fil1 {fill:white}
   ]]>
  </style>
   <clipPath id="id0">
    <path d="M-0 4402.67l7366 0 0 -4402.68 -7366 0 0 4402.68z"/>
   </clipPath>
 </defs>
 <g id="Layer_x0020_1">
  <metadata id="CorelCorpID_0Corel-Layer"/>
  <polygon class="fil0" points="-0,4402.67 7366,4402.67 7366,-0.01 -0,-0.01 "/>
  <g style="clip-path:url(#id0)">
   <g id="_105553779449152">
    <g>
     <path id="_1" class="fil1" d="M11918.75 -8305.8c-3321.84,1091.11 -10906.78,5913.59 -10911.22,9794.16 1238.78,-1144.94 6040.73,-5285.81 10911.22,-7582.89l0 -2211.27z"/>
     <path class="fil1" d="M11918.75 -3611.85c-3321.84,1091.1 -10906.78,5913.58 -10911.22,9794.15 1238.78,-1144.92 6040.73,-5285.79 10911.22,-7582.9l0 -2211.25z"/>
     <path class="fil1" d="M11918.75 1082.1c-3321.84,1091.11 -10906.78,5913.57 -10911.22,9794.15 1238.78,-1144.92 6040.73,-5285.81 10911.22,-7582.9l0 -2211.25z"/>
     <path class="fil1" d="M11918.75 5776.04c-3321.84,1091.12 -10906.78,5913.59 -10911.22,9794.16 1238.78,-1144.94 6040.73,-5285.78 10911.22,-7582.9l0 -2211.26z"/>
    </g>
   </g>
  </g>
  <polygon class="fil2" points="-0,4402.67 7366,4402.67 7366,-0.01 -0,-0.01 "/>
  <path class="fil3" d="M3620.94 1943.51c95.21,0 190.41,-0.24 285.6,0.28 13.69,0.07 19.31,-1.89 19.11,-17.89 -0.96,-80.23 -0.13,-160.46 -0.68,-240.7 -0.13,-19.49 -1.34,-39.31 -5.06,-58.39 -26.09,-133.62 -127.79,-225.51 -266.65,-241.97 -176.13,-20.88 -332.45,117.53 -333.09,295.21 -0.29,82.14 0.34,164.27 -0.42,246.4 -0.14,14.26 3.43,17.52 17.48,17.42 94.57,-0.69 189.15,-0.36 283.71,-0.36zm69.97 598.57c0.12,-42.1 33.09,-75.21 75,-75.37 42.71,-0.16 76.5,33.61 76.32,76.29 -0.17,42.55 -34.28,75.84 -77.24,75.38 -41.65,-0.45 -74.2,-33.97 -74.08,-76.3zm-207.43 76.29c-42.22,0.27 -75.86,-32.36 -76.33,-74.03 -0.49,-43.53 32.03,-77.35 74.64,-77.63 42.81,-0.28 76.72,33.29 76.68,75.92 -0.03,41.85 -33.34,75.48 -74.99,75.74zm-208.76 -75.79c-0.02,42.63 -33.95,76.12 -76.82,75.79 -41.81,-0.31 -74.52,-33.62 -74.5,-75.87 0,-42.98 33.42,-76.11 76.47,-75.79 41.62,0.3 74.86,34 74.85,75.87zm972.49 261.69c-4.18,-63.71 15.15,-122.66 65.47,-170.03 18.12,-17.06 39.72,-28.37 61.61,-39.55 49.88,-25.42 73.93,-76.68 62.21,-131.16 -11.03,-51.26 -57.06,-90.52 -111.29,-90.94 -59.66,-0.46 -116.22,40.98 -119.83,120.12 -1.42,31.15 -16.9,53.94 -45.26,66.34 -27.53,12.04 -54.13,8.28 -77.94,-10.43 -29.1,-22.87 -31.13,-54.91 -27,-87.71 14.87,-118.08 93.99,-206.07 209.78,-234.57 145.18,-35.75 301.9,70.11 322.71,217.98 17.57,124.86 -35.94,229.98 -148.42,287.34 -28.99,14.79 -42.49,35.24 -40.85,67.29 0.9,17.65 0.43,35.38 -0.01,53.06 -1.03,41.44 -34.1,73.44 -75.46,73.44 -41.35,-0.01 -74.5,-32.03 -75.66,-73.44 -0.4,-14.52 -0.06,-29.06 -0.06,-47.74zm56.67 367.63c-2.5,-5.58 -8.59,-4.42 -12.86,-6.52 -32.96,-16.17 -50.83,-51.56 -42.81,-86.02 8.16,-35.07 39.09,-59.36 75.26,-59.12 35.72,0.24 66.17,25.33 73.91,60.91 7.23,33.29 -11.05,68.33 -43.18,84.26 -4.14,2.04 -10.48,0.35 -12.48,6.49l-37.84 0zm-635.61 -1941.15c22.12,8.26 45.96,7.92 68.63,14.41 176.23,50.45 286.86,164.46 330.9,342.48 7.54,30.47 9.31,62.28 9.15,94.01 -0.43,81.48 0.19,162.97 -0.47,244.46 -0.1,13.54 2.35,17.87 17.08,17.87 49,0.02 98.14,-3.69 146.86,7.06 44.98,9.93 72.12,47.35 63.55,91.36 -8.25,42.33 -48.22,67.33 -92.78,58.16 -17.93,-3.68 -36.03,-5.47 -54.4,-5.46 -355.52,0.1 -711.05,0.03 -1066.57,0.1 -79.73,0.01 -135.96,40.28 -157.26,112.48 -4.48,15.17 -6.25,30.85 -6.25,46.66 -0.04,202.14 -0.15,404.28 0.04,606.42 0.07,76.22 41.63,132.47 112.8,153.24 17.58,5.13 35.82,6.28 54.14,6.28 306.99,-0.05 613.98,-0.06 920.97,0 49.83,0 84.17,34.26 80.71,81.41 -2.33,31.86 -19.94,53.48 -49.08,65.85 -2.63,1.12 -6.54,0.03 -7.24,4.36l-1002.61 0c-1.65,-4.92 -6,-3.48 -9.47,-4.02 -139.06,-21.57 -250.49,-148.25 -251.27,-289.26 -1.16,-211.65 -0.38,-423.31 -0.36,-634.97 0,-14.5 1.28,-28.83 3.39,-43.29 16.82,-115.83 105.77,-215.34 217.7,-246 51.62,-14.14 103.71,-10.03 155.77,-10.48 13.05,-0.11 16.77,-3.06 16.65,-16.52 -0.68,-80.24 -0.05,-160.48 -0.46,-240.72 -0.17,-34.85 1.13,-69.73 9.79,-103.35 46.64,-180.96 161.58,-293.77 341.52,-341.26 16.64,-4.39 34.61,-2.5 50.2,-11.28l98.37 0z"/>
 </g>
</svg>
