<?xml version="1.0" encoding="UTF-8"?>
<!DOCTYPE svg PUBLIC "-//W3C//DTD SVG 1.1//EN" "http://www.w3.org/Graphics/SVG/1.1/DTD/svg11.dtd">
<!-- Creator: CorelDRAW -->
<svg xmlns="http://www.w3.org/2000/svg" xml:space="preserve" width="73.66mm" height="44.0266mm" version="1.1" style="shape-rendering:geometricPrecision; text-rendering:geometricPrecision; image-rendering:optimizeQuality; fill-rule:evenodd; clip-rule:evenodd"
viewBox="0 0 7366 4402.66"
 xmlns:xlink="http://www.w3.org/1999/xlink"
 xmlns:xodm="http://www.corel.com/coreldraw/odm/2003">
 <defs>
  <style type="text/css">
   <![CDATA[
    .fil2 {fill:none;fill-rule:nonzero}
    .fil0 {fill:white;fill-rule:nonzero}
    .fil3 {fill:#553059;fill-rule:nonzero}
    .fil1 {fill:#96B52E}
   ]]>
  </style>
   <clipPath id="id0" style="clip-rule:nonzero">
    <path d="M-0 4402.66l7366 0 0 -4402.68 -7366 0 0 4402.68z"/>
   </clipPath>
 </defs>
 <g id="Layer_x0020_1">
  <metadata id="CorelCorpID_0Corel-Layer"/>
  <polygon class="fil0" points="-0,4402.66 7366,4402.66 7366,-0.02 -0,-0.02 "/>
  <g style="clip-path:url(#id0)">
   <g id="_105553848007360">
    <g>
     <path id="_1" class="fil1" d="M8634.12 -6242.33c-2320.58,762.23 -7619.28,4131.12 -7622.38,6842.02 865.39,-799.83 4219.95,-3692.57 7622.38,-5297.27l0 -1544.75z"/>
     <path class="fil1" d="M8634.12 -2963.22c-2320.58,762.22 -7619.28,4131.12 -7622.38,6842.02 865.39,-799.83 4219.95,-3692.57 7622.38,-5297.28l0 -1544.74z"/>
     <path class="fil1" d="M8634.12 315.88c-2320.58,762.23 -7619.28,4131.12 -7622.38,6842.02 865.39,-799.82 4219.95,-3692.57 7622.38,-5297.27l0 -1544.75z"/>
     <path class="fil1" d="M8634.12 3594.99c-2320.58,762.23 -7619.28,4131.12 -7622.38,6842.02 865.39,-799.83 4219.95,-3692.55 7622.38,-5297.28l0 -1544.74z"/>
    </g>
   </g>
  </g>
  <polygon class="fil2" points="-0,4402.66 7366,4402.66 7366,-0.02 -0,-0.02 "/>
  <path class="fil3" d="M4029.89 1764.64c-4.6,-196.98 -159.05,-346.12 -349.04,-344.47 -196.39,1.71 -344.83,158.49 -343.88,349.14 0.99,196.01 161.44,350.3 357.56,344.17 186.79,-5.84 333.97,-157 335.36,-348.84zm357.77 1000.6c0.26,40.47 -31.08,72.79 -70.99,73.19 -41.23,0.42 -73.54,-31.45 -73.5,-72.49 0.03,-40.27 31.76,-72.17 71.89,-72.29 40.33,-0.11 72.34,31.46 72.6,71.59zm-270.95 362.8c-19.44,-8.74 -40.75,-12.03 -59.81,-22.22 -58.31,-31.19 -87.95,-83.2 -105.94,-143.92 -4.6,-15.52 -8.73,-31.21 -12.63,-46.93 -9.86,-39.78 11.76,-76.95 51.17,-88.44 36.51,-10.65 74.82,9.81 87.36,47.22 7.63,22.72 13.82,45.93 21.67,68.57 9.98,28.76 26.74,40.75 56.58,40.83 71.05,0.24 142.1,0.08 213.15,0.09 26.86,0 45.51,-11.55 55.6,-37.33 28.13,-71.97 46.42,-145.38 36.28,-223.54 -6.38,-49.19 -19.73,-96.39 -40.3,-141.43 -9.32,-20.38 -27.51,-28.18 -48.6,-28.31 -72.85,-0.4 -145.71,-0.51 -218.55,0.02 -28.29,0.22 -42.39,11.33 -51.99,38.64 -6.95,19.78 -13.34,39.79 -19.39,59.86 -13.12,43.59 -35.68,60.58 -81.45,60.59 -155.95,0.01 -311.89,0.13 -467.82,-0.23 -12.88,-0.03 -22.84,2.18 -31.32,12.89 -12.2,15.43 -37.56,27.66 -37,43.65 0.5,14.29 24.82,27.17 37.28,41.82 9.44,11.11 19.83,14.63 34.24,14.43 60.2,-0.82 120.41,-0.46 180.62,-0.3 44.02,0.11 75.6,30.37 75.69,72.08 0.1,41.88 -31.38,72.54 -75.14,72.64 -76.46,0.16 -152.93,-0.15 -229.39,0.17 -21.72,0.08 -40.05,-7.2 -55.08,-22.42 -41.91,-42.47 -84.03,-84.74 -125.13,-127.99 -28.79,-30.31 -29.59,-70.12 -1.21,-100.74 40.56,-43.76 82.57,-86.14 124.31,-128.78 15.45,-15.79 34.67,-22.26 57.01,-22.2 149.31,0.34 298.63,0 447.96,0.46 14.35,0.05 21.72,-2.91 26.93,-18.08 32.84,-95.59 98.52,-141.47 199.73,-141.48 69.84,-0.01 139.69,-0.13 209.53,0.03 86.75,0.2 154.26,46.45 187.13,127.22 23.17,56.98 41.44,115.18 46.67,176.89 0.11,1.27 2.07,2.38 3.17,3.56l0 108.6c-2.91,0.53 -3.4,2.63 -3.68,5.16 -6.89,61.95 -24.56,121.05 -48.83,178.09 -25.58,60.15 -70.47,98.73 -133.88,115.66 -6.48,1.73 -14.55,-1.99 -19.53,5.17l-285.41 0zm-386.57 -1853.43c27.12,8.49 55.69,9.57 83.08,17.56 138.84,40.48 241.78,124.6 308.22,253.02 46.69,90.31 62.67,186.83 48.67,287.11 -17.78,127.28 -76.77,232.69 -175.83,315.04 -4.16,3.46 -8.32,6.93 -12.46,10.43 -0.43,0.36 -0.63,1 -1.84,3.03 10.48,3.94 20.77,7.67 30.94,11.68 39.41,15.51 58.47,53.43 46.04,91.42 -12.63,38.67 -51.48,58.98 -92.56,45.78 -60.59,-19.48 -121.46,-36.63 -184.92,-44.27 -69.1,-8.31 -137.92,-7.92 -206.67,1.87 -100.12,14.24 -194.26,46.5 -282.02,96.86 -123.09,70.64 -220.91,167.24 -293.37,289.45 -42.24,71.23 -71.06,147.82 -90.25,228.3 -13.76,57.74 19.13,100.98 78.65,101.26 78.83,0.35 157.67,0.07 236.5,0.09 44.97,0.01 74.67,20.9 81.72,57.44 7.6,39.39 -10.41,68.46 -53.23,85.99 -0.49,0.2 -0.78,0.9 -1.15,1.37l-307.09 0c-9.88,-7.16 -22.14,-6.97 -33.18,-10.57 -100.24,-32.74 -164.33,-133.02 -149.22,-236.17 12.6,-85.98 41.85,-167.75 81.45,-245 109.41,-213.46 273.89,-367.47 497.17,-456.87 15.78,-6.32 31.71,-12.22 47.78,-18.39 -1.16,-2.05 -1.33,-2.71 -1.76,-3.07 -4.13,-3.52 -8.31,-6.97 -12.46,-10.45 -102.51,-85.63 -161.97,-194.85 -177.39,-327.62 -11.19,-96.43 5.57,-188.41 49.95,-274.57 66.24,-128.58 169.35,-212.67 308.24,-253.19 25.06,-7.32 51.54,-7.55 75.84,-17.53l101.15 0z"/>
 </g>
</svg>
