<?xml version="1.0" encoding="UTF-8"?>
<!DOCTYPE svg PUBLIC "-//W3C//DTD SVG 1.1//EN" "http://www.w3.org/Graphics/SVG/1.1/DTD/svg11.dtd">
<!-- Creator: CorelDRAW -->
<svg xmlns="http://www.w3.org/2000/svg" xml:space="preserve" width="73.6598mm" height="44.0266mm" version="1.1" style="shape-rendering:geometricPrecision; text-rendering:geometricPrecision; image-rendering:optimizeQuality; fill-rule:evenodd; clip-rule:evenodd"
viewBox="0 0 7365.98 4402.66"
 xmlns:xlink="http://www.w3.org/1999/xlink"
 xmlns:xodm="http://www.corel.com/coreldraw/odm/2003">
 <defs>
  <style type="text/css">
   <![CDATA[
    .fil1 {fill:#553059;fill-rule:nonzero}
    .fil0 {fill:white}
   ]]>
  </style>
 </defs>
 <g id="Layer_x0020_1">
  <metadata id="CorelCorpID_0Corel-Layer"/>
  <path class="fil0" d="M6135.39 0c-1493.23,490.47 -4902.82,2658.27 -4904.82,4402.67 556.86,-514.67 2715.44,-2376.07 4904.82,-3408.67l0 -994z"/>
  <path class="fil1" d="M4216.77 1529.38c-7.08,-303.11 -244.74,-532.6 -537.09,-530.06 -302.2,2.63 -530.61,243.87 -529.15,537.24 1.52,301.62 248.42,539.03 550.2,529.6 287.43,-8.99 513.9,-241.59 516.04,-536.78zm550.53 1539.69c0.4,62.27 -47.83,112 -109.24,112.62 -63.44,0.65 -113.16,-48.39 -113.1,-111.55 0.05,-61.96 48.87,-111.05 110.62,-111.23 62.06,-0.17 111.32,48.41 111.72,110.16zm-416.93 558.26c-29.92,-13.45 -62.71,-18.51 -92.04,-34.19 -89.72,-47.99 -135.33,-128.02 -163.01,-221.46 -7.08,-23.88 -13.44,-48.02 -19.44,-72.21 -15.17,-61.22 18.1,-118.41 78.74,-136.09 56.18,-16.39 115.13,15.09 134.43,72.66 11.74,34.96 21.26,70.67 33.34,105.51 15.36,44.26 41.15,62.71 87.07,62.83 109.33,0.37 218.66,0.12 327.98,0.14 41.34,0 70.03,-17.77 85.56,-57.44 77.72,-198.86 82.8,-366.77 -6.19,-561.61 -14.34,-31.36 -42.33,-43.36 -74.78,-43.56 -112.1,-0.62 -224.21,-0.79 -336.3,0.03 -43.53,0.34 -65.23,17.43 -80,59.46 -10.69,30.44 -20.52,61.23 -29.83,92.11 -20.19,67.07 -54.91,93.22 -125.34,93.23 -239.97,0.02 -479.92,0.2 -719.86,-0.35 -19.82,-0.05 -35.15,3.35 -48.2,19.83 -18.77,23.75 -57.79,42.57 -56.93,67.17 0.77,21.99 38.19,41.81 57.36,64.35 14.53,17.1 30.52,22.51 52.69,22.21 92.64,-1.27 185.28,-0.71 277.93,-0.46 67.74,0.16 116.33,46.73 116.47,110.91 0.16,64.44 -48.28,111.62 -115.62,111.78 -117.65,0.24 -235.32,-0.24 -352.98,0.26 -33.42,0.12 -61.62,-11.08 -84.75,-34.5 -64.49,-65.35 -129.31,-130.4 -192.55,-196.95 -44.3,-46.64 -45.53,-107.9 -1.86,-155.01 62.41,-67.34 127.06,-132.55 191.28,-198.17 23.78,-24.29 53.35,-34.25 87.73,-34.16 229.75,0.53 459.52,0 689.3,0.71 22.09,0.08 33.43,-4.48 41.44,-27.82 50.54,-147.09 151.6,-217.69 307.34,-217.71 107.47,-0.01 214.95,-0.2 322.42,0.05 133.49,0.31 237.37,71.48 287.95,195.76 104.3,256.5 104.79,470.83 -4.11,726.76 -39.36,92.56 -108.44,151.93 -206.01,177.98 -9.97,2.66 -22.39,-3.07 -30.05,7.95l-439.18 0zm-467 -2824.98c213.64,62.29 372.04,191.73 474.28,389.34 71.84,138.97 96.43,287.49 74.89,441.8 -27.36,195.85 -118.13,358.05 -270.56,484.77 -6.4,5.33 -12.81,10.67 -19.18,16.05 -0.66,0.56 -0.97,1.54 -2.83,4.66 16.13,6.07 31.96,11.81 47.61,17.98 60.64,23.86 89.97,82.21 70.85,140.67 -19.44,59.5 -79.22,90.76 -142.43,70.45 -93.24,-29.98 -186.9,-56.37 -284.55,-68.13 -106.33,-12.78 -212.23,-12.18 -318.02,2.88 -154.06,21.91 -298.92,71.55 -433.96,149.05 -189.41,108.7 -339.93,257.34 -451.43,445.39 -64.99,109.61 -109.34,227.46 -138.87,351.3 -21.17,88.85 29.44,155.39 121.02,155.82 121.3,0.54 242.62,0.11 363.92,0.14 69.2,0.01 114.9,32.16 125.75,88.39 11.69,60.61 -16.02,105.34 -81.91,132.31 -0.75,0.31 -1.2,1.39 -1.77,2.11l-472.54 0c-15.2,-11.02 -34.07,-10.72 -51.05,-16.26 -154.25,-50.38 -252.87,-204.69 -229.62,-363.41 19.39,-132.31 64.4,-258.13 125.33,-377 168.36,-328.47 421.46,-565.45 765.03,-703.02 24.28,-9.72 48.8,-18.8 73.52,-28.3 -1.78,-3.15 -2.04,-4.17 -2.7,-4.72 -6.36,-5.42 -12.79,-10.73 -19.18,-16.08 -157.74,-131.77 -249.23,-299.83 -272.96,-504.13 -17.22,-148.39 8.57,-289.92 76.86,-422.5 101.93,-197.86 260.59,-327.25 474.31,-389.6 126.53,-36.96 273.5,-36.92 400.19,0.04z"/>
 </g>
</svg>
