<?xml version="1.0" encoding="UTF-8"?>
<!DOCTYPE svg PUBLIC "-//W3C//DTD SVG 1.1//EN" "http://www.w3.org/Graphics/SVG/1.1/DTD/svg11.dtd">
<!-- Creator: CorelDRAW -->
<svg xmlns="http://www.w3.org/2000/svg" xml:space="preserve" width="73.6598mm" height="44.0266mm" version="1.1" style="shape-rendering:geometricPrecision; text-rendering:geometricPrecision; image-rendering:optimizeQuality; fill-rule:evenodd; clip-rule:evenodd"
viewBox="0 0 7365.98 4402.66"
 xmlns:xlink="http://www.w3.org/1999/xlink"
 xmlns:xodm="http://www.corel.com/coreldraw/odm/2003">
 <defs>
  <style type="text/css">
   <![CDATA[
    .fil1 {fill:#553059;fill-rule:nonzero}
    .fil0 {fill:white}
   ]]>
  </style>
 </defs>
 <g id="Layer_x0020_1">
  <metadata id="CorelCorpID_0Corel-Layer"/>
  <path class="fil0" d="M6135.39 0c-1493.23,490.47 -4902.82,2658.27 -4904.82,4402.67 556.86,-514.67 2715.44,-2376.07 4904.82,-3408.67l0 -994z"/>
  <path class="fil1" d="M4619.03 774.95c9.95,14.11 26.35,8.32 39.48,12.13 148.83,43.15 242.33,167.29 243.22,326.72 0.81,142.65 0.19,285.29 0.2,427.94 0,182.3 0.02,364.61 0,546.91 0,27.93 -0.04,27.73 -26.62,24.29 -57.91,-7.48 -114.01,-0.89 -168.25,21.26 -24.15,9.86 -24.39,9.45 -24.39,-16.4 -0.01,-290.62 -0.01,-581.25 -0.01,-871.88 0,-30.98 0.03,-31.01 -31,-31.01 -714.73,-0.03 -1429.46,-0.07 -2144.19,-0.1 -29.85,0 -29.94,0 -29.94,30.17 -0.01,611 -0.03,1222 0,1832.99 0,76.06 46.35,122.24 123.03,122.27 353.17,0.08 706.34,-0.03 1059.51,-0.04 3.81,0 7.68,0.4 11.43,0.01 16.09,-1.69 19.03,3.69 14.14,19.38 -18.55,59.59 -36.18,119.51 -52.99,179.64 -4.19,14.95 -10.18,20.73 -26.47,20.7 -337.92,-0.5 -675.84,0.15 -1013.75,-0.66 -156.3,-0.37 -283.23,-97.72 -323.01,-244.51 -0.96,-3.58 -1.09,-7.4 -1.62,-11.12 -5.53,-4.72 -0.67,-15.59 -10.51,-17.76l0 -45.77 0 0 0 -2050.54c9.44,-4.39 7.52,-14.11 9.56,-21.62 31.2,-115.48 102.54,-193.94 215.04,-235.12 16.64,-6.09 35.87,-4.97 50.02,-17.88l2087.12 0zm-1590.98 1431.78c-0.02,30.5 -0.43,61.02 0.17,91.51 0.26,12.95 -2.64,19.32 -17.56,19.15 -61.76,-0.69 -123.53,-0.56 -185.3,-0.05 -13.21,0.12 -17.09,-4.95 -17.03,-17.46 0.3,-61 0.24,-122.01 -0.34,-183 -0.16,-15.08 5.73,-19.32 20.34,-19.15 60.23,0.72 120.48,0.83 180.71,0.04 15.48,-0.22 19.67,5.23 19.25,19.75 -0.82,29.71 -0.24,59.48 -0.24,89.21zm-219.56 -438.54c-0.03,-30.46 0.81,-60.96 -0.38,-91.36 -0.62,-16.33 5.28,-20.92 20.91,-20.77 60.15,0.66 120.3,0.52 180.46,-0.01 13.49,-0.11 18.94,3.81 18.8,18.08 -0.56,61.68 -0.53,123.36 0.06,185.04 0.13,13.94 -4.61,18.34 -18.44,18.2 -60.92,-0.58 -121.85,-0.8 -182.75,0.11 -16.09,0.24 -19.16,-6.31 -18.85,-20.21 0.67,-29.67 0.2,-59.39 0.19,-89.08zm108.9 990.68c-29.7,0 -59.4,-0.53 -89.09,0.22 -14.22,0.36 -20.28,-3.49 -20.09,-19.1 0.7,-60.92 0.53,-121.83 -0.13,-182.77 -0.15,-14.9 4.78,-19.67 19.8,-19.47 60.15,0.74 120.32,0.67 180.46,-0.03 14.49,-0.17 20.23,3.63 20.06,19.01 -0.67,60.9 -0.65,121.83 0,182.75 0.16,14.9 -4.62,20.06 -19.64,19.59 -30.43,-0.95 -60.92,-0.28 -91.37,-0.28l0 0.08zm1905.36 -429.07c35.51,-1.95 63.84,13.36 87.89,37.2 53.49,53.02 106.93,106.11 159.45,160.08 41.25,42.39 49.72,95.92 23.99,144.49 -11.14,21.02 -29.19,36.76 -45.76,53.44 -31.61,31.82 -63.87,63.03 -94.95,95.34 -9.51,9.89 -15.13,11.06 -25.32,0.75 -102.69,-103.96 -205.71,-207.58 -309.04,-310.88 -10.28,-10.28 -8.83,-16.7 0.61,-26.02 41.17,-40.63 81.18,-82.44 122.83,-122.55 21.98,-21.15 48.91,-33.52 80.3,-31.85zm-574.79 215.52c-29.89,29.07 -59.9,57.99 -89.65,87.21 -38.52,37.85 -77.21,75.56 -114.95,114.19 -8.94,9.17 -17.8,12.41 -30.03,12.4 -245.41,-0.25 -490.81,-0.48 -736.21,0.26 -22.12,0.07 -28.43,-5.88 -27.77,-28 1.62,-54.83 1.65,-109.78 0.01,-164.59 -0.67,-22.7 4.88,-29.52 28.72,-29.41 237.02,1.01 474.04,0.64 711.06,0.65 76.98,0 153.94,-0.01 230.91,-0.01 8.1,0 16.19,0 24.27,0 1.21,2.43 2.43,4.87 3.64,7.3zm-446.25 -447.31c174.64,0.02 349.31,0.38 523.96,-0.46 20.58,-0.11 25.72,5.93 25.28,25.73 -1.24,57.16 -0.89,114.4 -0.08,171.58 0.24,16.16 -3.17,22.64 -21.24,22.6 -353.12,-0.53 -706.24,-0.51 -1059.36,-0.11 -16.23,0.04 -20.89,-5.04 -20.69,-20.85 0.76,-58.72 1.09,-117.46 -0.12,-176.16 -0.41,-19.01 6.46,-22.71 23.7,-22.67 176.18,0.53 352.36,0.33 528.55,0.34zm0.32 -220.89c-175.45,-0.05 -350.91,-0.47 -526.36,0.51 -21.99,0.13 -26.65,-6.95 -26.21,-27.13 1.23,-56.42 1.76,-112.93 -0.11,-169.31 -0.8,-23.96 10.2,-25.14 28.63,-25.13 299.78,0.36 599.57,0.25 899.36,0.25 51.12,-0.01 102.24,0.55 153.33,-0.32 16.82,-0.3 20.17,6.58 20,21.69 -0.64,59.49 -0.84,119.02 0.28,178.49 0.33,17.94 -6.24,21.34 -22.57,21.29 -175.44,-0.51 -350.91,-0.33 -526.35,-0.34zm418.94 1535.3c-9.8,-50.81 -19.56,-101.63 -29.42,-152.43 -2,-10.26 -10.44,-11.96 -18.83,-13.69 -45.48,-9.37 -91.06,-18.27 -136.34,-28.5 -13.14,-2.98 -17.4,1.57 -20.67,13.11 -15.34,54.19 -28.49,109.25 -48.07,161.92 -13.8,37.13 -8.53,63 23.18,85.65 7.42,5.29 12.81,9.3 22.15,6.51 64.92,-19.35 129.95,-38.37 194.95,-57.51 7.49,-2.21 15.31,-4.22 13.05,-15.06zm-406.69 161.05c0.3,-1.29 1.48,-8.02 3.38,-14.56 35.92,-123.53 72.51,-246.88 107.48,-370.67 8.42,-29.91 28.56,-49.54 48.98,-69.86 116.95,-116.56 233.92,-233.06 350.98,-349.51 50.21,-49.95 100.82,-99.51 150.79,-149.73 10.7,-10.76 17.44,-14.53 30.56,-1.2 105.32,106.88 211.41,213.03 317.7,318.98 11.79,11.74 14.7,18.25 0.71,32.01 -106.89,105.18 -212.64,211.52 -318.91,317.36 -69.56,69.25 -139.55,138.11 -209.02,207.47 -10.09,10.09 -21.57,16.29 -35.04,20.21 -124.94,36.55 -250.1,72.4 -374.6,110.42 -42.97,13.13 -75.92,-14.61 -73.01,-50.92zm-1546.68 -431.21c-0.17,-2.7 -0.39,-5.38 -0.7,-8.04 0.31,2.66 0.53,5.34 0.7,8.04zm-0.7 -8.04c-0.16,-1.34 -0.33,-2.67 -0.52,-4 0.19,1.33 0.36,2.66 0.52,4z"/>
 </g>
</svg>
