<?xml version="1.0" encoding="UTF-8"?>
<!DOCTYPE svg PUBLIC "-//W3C//DTD SVG 1.1//EN" "http://www.w3.org/Graphics/SVG/1.1/DTD/svg11.dtd">
<!-- Creator: CorelDRAW -->
<svg xmlns="http://www.w3.org/2000/svg" xml:space="preserve" width="73.6598mm" height="44.0266mm" version="1.1" style="shape-rendering:geometricPrecision; text-rendering:geometricPrecision; image-rendering:optimizeQuality; fill-rule:evenodd; clip-rule:evenodd"
viewBox="0 0 7365.98 4402.66"
 xmlns:xlink="http://www.w3.org/1999/xlink"
 xmlns:xodm="http://www.corel.com/coreldraw/odm/2003">
 <defs>
  <style type="text/css">
   <![CDATA[
    .fil1 {fill:white;fill-rule:nonzero}
    .fil0 {fill:#96B52E}
   ]]>
  </style>
 </defs>
 <g id="Layer_x0020_1">
  <metadata id="CorelCorpID_0Corel-Layer"/>
  <path class="fil0" d="M6135.39 0c-1493.23,490.47 -4902.82,2658.27 -4904.82,4402.67 556.86,-514.67 2715.44,-2376.07 4904.82,-3408.67l0 -994z"/>
  <path class="fil1" d="M3591.8 1822.53c139.88,0 279.76,-0.35 419.61,0.41 20.12,0.11 28.37,-2.77 28.08,-26.28 -1.41,-117.88 -0.19,-235.75 -1,-353.65 -0.19,-28.63 -1.97,-57.75 -7.43,-85.78 -38.34,-196.32 -187.76,-331.33 -391.78,-355.52 -258.77,-30.67 -488.44,172.68 -489.38,433.74 -0.43,120.68 0.5,241.35 -0.62,362.02 -0.21,20.95 5.04,25.74 25.68,25.59 138.95,-1.01 277.91,-0.53 416.84,-0.53zm102.8 879.44c0.18,-61.85 48.62,-110.5 110.19,-110.73 62.75,-0.24 112.4,49.38 112.14,112.09 -0.25,62.51 -50.37,111.42 -113.49,110.75 -61.19,-0.66 -109.02,-49.91 -108.84,-112.11zm-304.76 112.09c-62.03,0.4 -111.46,-47.54 -112.15,-108.76 -0.72,-63.96 47.06,-113.65 109.66,-114.06 62.9,-0.41 112.72,48.91 112.67,111.54 -0.05,61.49 -48.99,110.9 -110.18,111.28zm-306.72 -111.35c-0.03,62.63 -49.88,111.84 -112.87,111.35 -61.43,-0.45 -109.49,-49.39 -109.46,-111.47 0,-63.15 49.11,-111.82 112.36,-111.35 61.15,0.44 109.98,49.95 109.97,111.47zm1428.82 384.48c-6.14,-93.6 22.26,-180.21 96.19,-249.81 26.62,-25.07 58.36,-41.68 90.52,-58.11 73.28,-37.35 108.62,-112.66 91.4,-192.7 -16.21,-75.32 -83.84,-133 -163.51,-133.62 -87.66,-0.67 -170.76,60.21 -176.06,176.49 -2.09,45.77 -24.83,79.25 -66.5,97.47 -40.45,17.69 -79.53,12.16 -114.51,-15.33 -42.76,-33.6 -45.74,-80.67 -39.67,-128.86 21.85,-173.49 138.09,-302.77 308.22,-344.64 213.3,-52.53 443.56,103.01 474.13,320.26 25.82,183.45 -52.8,337.9 -218.06,422.17 -42.59,21.73 -62.43,51.78 -60.02,98.87 1.32,25.93 0.63,51.98 -0.01,77.96 -1.52,60.88 -50.1,107.9 -110.87,107.9 -60.75,-0.02 -109.46,-47.06 -111.16,-107.9 -0.59,-21.34 -0.09,-42.7 -0.09,-70.15zm83.26 540.14c-3.67,-8.2 -12.62,-6.49 -18.9,-9.58 -48.42,-23.76 -74.68,-75.75 -62.89,-126.38 11.99,-51.53 57.43,-87.22 110.57,-86.86 52.48,0.35 97.22,37.21 108.59,89.49 10.63,48.91 -16.23,100.39 -63.44,123.79 -6.08,3 -15.4,0.52 -18.33,9.54l-55.6 0zm-833.03 -2830.84c258.92,74.12 421.47,241.63 486.17,503.19 11.08,44.76 13.68,91.5 13.45,138.12 -0.64,119.71 0.27,239.44 -0.7,359.17 -0.14,19.89 3.46,26.25 25.1,26.25 71.99,0.03 144.19,-5.42 215.77,10.38 66.09,14.59 105.96,69.57 93.37,134.23 -12.12,62.19 -70.85,98.92 -136.31,85.45 -26.35,-5.41 -52.94,-8.04 -79.93,-8.02 -522.34,0.14 -1044.7,0.04 -1567.05,0.14 -117.14,0.02 -199.75,59.18 -231.05,165.26 -6.58,22.29 -9.18,45.33 -9.18,68.56 -0.06,296.99 -0.22,593.98 0.06,890.97 0.1,111.99 61.16,194.63 165.73,225.15 25.83,7.53 52.63,9.22 79.54,9.22 451.04,-0.07 902.09,-0.08 1353.13,0 73.21,0 123.66,50.34 118.58,119.61 -3.42,46.81 -29.3,78.58 -72.11,96.75 -3.87,1.65 -9.61,0.05 -10.64,6.41l-1473.07 0c-2.42,-7.23 -8.82,-5.11 -13.91,-5.91 -204.32,-31.69 -368.03,-217.81 -369.18,-424.99 -1.7,-310.96 -0.56,-621.94 -0.53,-932.92 0,-21.3 1.88,-42.36 4.98,-63.6 24.71,-170.18 155.4,-316.39 319.86,-361.44 75.84,-20.77 152.37,-14.73 228.86,-15.39 19.17,-0.16 24.64,-4.5 24.46,-24.27 -1,-117.9 -0.07,-235.79 -0.67,-353.68 -0.25,-51.2 1.66,-102.45 14.38,-151.85 68.52,-265.87 237.4,-431.61 501.77,-501.39 93.49,-24.67 226.19,-22.01 319.12,4.6z"/>
 </g>
</svg>
