<?xml version="1.0" encoding="UTF-8"?>
<!DOCTYPE svg PUBLIC "-//W3C//DTD SVG 1.1//EN" "http://www.w3.org/Graphics/SVG/1.1/DTD/svg11.dtd">
<!-- Creator: CorelDRAW -->
<svg xmlns="http://www.w3.org/2000/svg" xml:space="preserve" width="73.66mm" height="44.0266mm" version="1.1" style="shape-rendering:geometricPrecision; text-rendering:geometricPrecision; image-rendering:optimizeQuality; fill-rule:evenodd; clip-rule:evenodd"
viewBox="0 0 7366 4402.66"
 xmlns:xlink="http://www.w3.org/1999/xlink"
 xmlns:xodm="http://www.corel.com/coreldraw/odm/2003">
 <defs>
  <style type="text/css">
   <![CDATA[
    .fil2 {fill:none;fill-rule:nonzero}
    .fil3 {fill:white;fill-rule:nonzero}
    .fil0 {fill:#553059;fill-rule:nonzero}
    .fil1 {fill:#96B52E}
   ]]>
  </style>
   <clipPath id="id0" style="clip-rule:nonzero">
    <path d="M-0 4402.67l7366 0 0 -4402.68 -7366 0 0 4402.68z"/>
   </clipPath>
 </defs>
 <g id="Layer_x0020_1">
  <metadata id="CorelCorpID_0Corel-Layer"/>
  <polygon class="fil0" points="-0,4402.67 7366,4402.67 7366,-0.01 -0,-0.01 "/>
  <g style="clip-path:url(#id0)">
   <g id="_105553774876512">
    <g>
     <path id="_1" class="fil1" d="M9819.35 -3793.06c-2553.81,838.84 -8385.07,4546.33 -8388.48,7529.69 952.37,-880.22 4644.08,-4063.7 8388.48,-5829.68l0 -1700.01z"/>
     <path class="fil1" d="M9819.35 -184.38c-2553.81,838.83 -8385.07,4546.33 -8388.48,7529.69 952.37,-880.21 4644.08,-4063.69 8388.48,-5829.69l0 -1700z"/>
     <path class="fil1" d="M9819.35 3424.3c-2553.81,838.84 -8385.07,4546.32 -8388.48,7529.69 952.37,-880.21 4644.08,-4063.7 8388.48,-5829.69l0 -1700z"/>
     <path class="fil1" d="M9819.35 7032.98c-2553.81,838.84 -8385.07,4546.33 -8388.48,7529.69 952.37,-880.22 4644.08,-4063.68 8388.48,-5829.69l0 -1700z"/>
    </g>
   </g>
  </g>
  <polygon class="fil2" points="-0,4402.67 7366,4402.67 7366,-0.01 -0,-0.01 "/>
  <path class="fil3" d="M4283.96 1285.57c6.39,9.06 16.92,5.34 25.35,7.79 95.55,27.7 155.58,107.4 156.15,209.76 0.52,91.58 0.12,183.16 0.13,274.74 0,117.04 0.01,234.09 0,351.13 0,17.93 -0.03,17.8 -17.09,15.59 -37.18,-4.8 -73.2,-0.57 -108.02,13.65 -15.51,6.33 -15.66,6.07 -15.66,-10.53 -0.01,-186.58 -0.01,-373.17 -0.01,-559.76 0,-19.89 0.02,-19.91 -19.9,-19.91 -458.87,-0.02 -917.74,-0.04 -1376.61,-0.06 -19.16,0 -19.22,0 -19.22,19.37 -0.01,392.27 -0.02,784.54 0,1176.81 0,48.83 29.76,78.48 78.99,78.5 226.74,0.05 453.48,-0.02 680.22,-0.03 2.45,0 4.93,0.26 7.34,0.01 10.33,-1.09 12.22,2.37 9.08,12.44 -11.91,38.26 -23.23,76.73 -34.02,115.33 -2.69,9.6 -6.54,13.31 -17,13.29 -216.95,-0.32 -433.9,0.1 -650.84,-0.42 -100.35,-0.24 -181.84,-62.74 -207.38,-156.98 -0.62,-2.3 -0.7,-4.75 -1.04,-7.14 -3.55,-3.03 -0.43,-10.01 -6.75,-11.4l0 -29.39 0 0 0 -1316.48c6.06,-2.82 4.83,-9.06 6.14,-13.88 20.03,-74.14 65.83,-124.51 138.06,-150.95 10.68,-3.91 23.03,-3.19 32.11,-11.48l1339.97 0zm-1021.44 919.23c-0.01,19.58 -0.27,39.17 0.11,58.75 0.17,8.31 -1.69,12.4 -11.27,12.29 -39.65,-0.44 -79.31,-0.36 -118.97,-0.03 -8.48,0.08 -10.97,-3.18 -10.93,-11.21 0.19,-39.16 0.15,-78.33 -0.22,-117.49 -0.1,-9.68 3.68,-12.4 13.06,-12.29 38.67,0.46 77.35,0.53 116.02,0.02 9.94,-0.14 12.63,3.36 12.36,12.68 -0.53,19.08 -0.16,38.19 -0.16,57.28zm-140.96 -281.55c-0.02,-19.56 0.52,-39.14 -0.24,-58.66 -0.4,-10.48 3.39,-13.43 13.42,-13.33 38.62,0.42 77.24,0.33 115.86,-0.01 8.66,-0.07 12.16,2.45 12.07,11.61 -0.36,39.6 -0.34,79.2 0.04,118.8 0.08,8.95 -2.96,11.77 -11.84,11.68 -39.11,-0.37 -78.23,-0.51 -117.33,0.07 -10.33,0.16 -12.3,-4.05 -12.1,-12.97 0.43,-19.05 0.13,-38.13 0.12,-57.19zm69.92 636.03c-19.07,0 -38.14,-0.34 -57.2,0.14 -9.13,0.23 -13.02,-2.24 -12.9,-12.26 0.45,-39.11 0.34,-78.22 -0.08,-117.34 -0.1,-9.57 3.07,-12.63 12.71,-12.5 38.62,0.47 77.25,0.43 115.86,-0.02 9.3,-0.11 12.99,2.33 12.88,12.2 -0.43,39.1 -0.42,78.22 0,117.33 0.1,9.57 -2.97,12.88 -12.61,12.58 -19.54,-0.61 -39.11,-0.18 -58.66,-0.18l0 0.05zm1223.27 -275.47c22.8,-1.25 40.99,8.58 56.43,23.88 34.34,34.04 68.65,68.13 102.37,102.78 26.48,27.21 31.92,61.58 15.4,92.76 -7.15,13.5 -18.74,23.6 -29.38,34.31 -20.29,20.43 -41,40.47 -60.96,61.21 -6.1,6.35 -9.71,7.1 -16.25,0.48 -65.93,-66.74 -132.07,-133.27 -198.41,-199.59 -6.6,-6.6 -5.67,-10.72 0.39,-16.7 26.43,-26.09 52.12,-52.93 78.86,-78.68 14.11,-13.58 31.4,-21.52 51.55,-20.45zm-369.02 138.37c-19.19,18.66 -38.46,37.23 -57.56,55.99 -24.73,24.3 -49.57,48.51 -73.8,73.31 -5.74,5.89 -11.43,7.97 -19.28,7.96 -157.56,-0.16 -315.11,-0.31 -472.66,0.17 -14.2,0.04 -18.25,-3.78 -17.83,-17.98 1.04,-35.2 1.06,-70.48 0.01,-105.67 -0.43,-14.57 3.13,-18.95 18.44,-18.88 152.17,0.65 304.34,0.41 456.51,0.42 49.42,0 98.83,-0.01 148.25,-0.01 5.2,0 10.39,0 15.58,0 0.78,1.56 1.56,3.13 2.34,4.69zm-286.5 -287.18c112.12,0.01 224.26,0.24 336.39,-0.3 13.21,-0.07 16.51,3.81 16.23,16.52 -0.8,36.7 -0.57,73.45 -0.05,110.16 0.15,10.37 -2.04,14.53 -13.64,14.51 -226.71,-0.34 -453.42,-0.33 -680.13,-0.07 -10.42,0.02 -13.41,-3.24 -13.28,-13.39 0.49,-37.7 0.7,-75.41 -0.08,-113.1 -0.26,-12.2 4.15,-14.58 15.22,-14.55 113.11,0.34 226.22,0.21 339.34,0.22zm0.2 -141.82c-112.64,-0.03 -225.29,-0.3 -337.93,0.33 -14.12,0.08 -17.11,-4.46 -16.83,-17.42 0.79,-36.22 1.13,-72.5 -0.07,-108.7 -0.51,-15.38 6.55,-16.14 18.38,-16.13 192.47,0.23 384.94,0.16 577.41,0.16 32.82,-0.01 65.64,0.35 98.44,-0.21 10.8,-0.19 12.95,4.23 12.84,13.93 -0.41,38.19 -0.54,76.41 0.18,114.59 0.21,11.52 -4.01,13.7 -14.49,13.67 -112.64,-0.33 -225.29,-0.21 -337.93,-0.22zm268.97 985.69c-6.29,-32.62 -12.56,-65.25 -18.89,-97.86 -1.28,-6.59 -6.7,-7.68 -12.09,-8.79 -29.2,-6.02 -58.46,-11.73 -87.53,-18.3 -8.44,-1.91 -11.17,1.01 -13.27,8.42 -9.85,34.79 -18.29,70.14 -30.86,103.95 -8.86,23.84 -5.48,40.45 14.88,54.99 4.76,3.4 8.22,5.97 14.22,4.18 41.68,-12.42 83.43,-24.63 125.16,-36.92 4.81,-1.42 9.83,-2.71 8.38,-9.67zm-261.1 103.4c0.19,-0.83 0.95,-5.15 2.17,-9.35 23.06,-79.31 46.55,-158.5 69,-237.98 5.41,-19.2 18.34,-31.8 31.45,-44.85 75.08,-74.83 150.18,-149.63 225.33,-224.39 32.24,-32.07 64.73,-63.89 96.81,-96.13 6.87,-6.91 11.2,-9.33 19.62,-0.77 67.62,68.62 135.73,136.77 203.97,204.79 7.57,7.54 9.44,11.72 0.46,20.55 -68.63,67.53 -136.52,135.8 -204.75,203.75 -44.66,44.46 -89.59,88.67 -134.19,133.2 -6.48,6.48 -13.85,10.46 -22.5,12.98 -80.21,23.46 -160.57,46.48 -240.5,70.89 -27.59,8.43 -48.74,-9.38 -46.87,-32.69zm-993 -276.85c-0.11,-1.73 -0.25,-3.45 -0.45,-5.16 0.2,1.71 0.34,3.43 0.45,5.16zm-0.45 -5.16c-0.1,-0.86 -0.21,-1.71 -0.33,-2.57 0.12,0.86 0.23,1.71 0.33,2.57z"/>
 </g>
</svg>
