<?xml version="1.0" encoding="UTF-8" standalone="no"?>
<!-- Created with Inkscape (http://www.inkscape.org/) -->

<svg
   version="1.1"
   id="svg91"
   width="426.03824"
   height="677.26025"
   viewBox="0 0 426.03824 677.26025"
   sodipodi:docname="Elephant3B.svg"
   inkscape:version="1.2.2 (732a01da63, 2022-12-09, custom)"
   xmlns:inkscape="http://www.inkscape.org/namespaces/inkscape"
   xmlns:sodipodi="http://sodipodi.sourceforge.net/DTD/sodipodi-0.dtd"
   xmlns="http://www.w3.org/2000/svg"
   xmlns:svg="http://www.w3.org/2000/svg">
  <defs
     id="defs95" />
  <sodipodi:namedview
     id="namedview93"
     pagecolor="#ffffff"
     bordercolor="#000000"
     borderopacity="0.25"
     inkscape:showpageshadow="2"
     inkscape:pageopacity="0.0"
     inkscape:pagecheckerboard="0"
     inkscape:deskcolor="#d1d1d1"
     showgrid="false"
     inkscape:zoom="1.211104"
     inkscape:cx="213.02877"
     inkscape:cy="393.02983"
     inkscape:window-width="1920"
     inkscape:window-height="1031"
     inkscape:window-x="0"
     inkscape:window-y="25"
     inkscape:window-maximized="1"
     inkscape:current-layer="g99">
    <inkscape:page
       x="0"
       y="0"
       id="page97"
       width="426.03824"
       height="677.26025" />
  </sodipodi:namedview>
  <g
     id="g99"
     inkscape:groupmode="layer"
     inkscape:label="Layer 1"
     transform="matrix(1.3333333,0,0,-1.3333333,-195.29537,776.82712)"
     style="display:inline">
    <path
       id="path3030"
       style="display:inline;fill:#e9ddaf;fill-opacity:1;fill-rule:nonzero;stroke:none;stroke-width:0.1"
       d="M 393.47349 102.15746 C 393.33212 102.15122 393.03527 102.10089 392.65464 101.70189 C 391.24964 100.22389 390.51976 96.060552 390.52476 93.936754 C 390.82876 93.702754 391.37238 93.570543 392.06138 93.570543 C 393.85638 93.570543 396.19861 94.481251 397.07261 95.52025 C 397.18761 95.66055 397.37621 95.918625 397.33921 96.129625 C 396.73621 99.545622 395.57397 101.55493 393.89097 102.09593 C 393.76197 102.13793 393.6363 102.15746 393.5233 102.15746 C 393.50967 102.15746 393.49369 102.15835 393.47349 102.15746 z M 383.54185 101.35179 C 383.10793 101.35343 382.66818 101.10243 382.17662 100.58568 C 380.35162 98.666882 379.08044 94.216679 378.99644 92.281481 C 379.51244 91.879581 380.80402 91.503648 382.76402 91.503648 C 385.81002 91.503648 387.99822 92.380359 388.17222 92.861559 L 387.96275 93.769762 C 387.41775 96.305759 386.50914 100.54831 383.84214 101.30931 C 383.74202 101.33631 383.64199 101.35142 383.54185 101.35179 z M 372.09703 99.632067 C 371.33144 99.666661 370.60606 99.101378 370.13706 98.608141 C 368.46707 96.851943 367.33187 93.591837 367.29087 92.020738 C 367.67287 91.562539 369.19266 90.980699 371.69566 90.980699 C 374.34966 90.980699 376.01791 91.638455 376.20591 92.007555 C 376.09691 92.370454 376.00701 92.857225 375.91001 93.371324 C 375.45101 95.825222 374.88261 98.876633 372.42662 99.579332 C 372.31624 99.610732 372.20639 99.627125 372.09703 99.632067 z M 236.59019 98.735582 C 235.65619 97.838783 235.40194 94.992495 235.66294 90.1765 L 235.67026 90.060777 C 235.98126 89.801878 236.47039 89.739977 236.85239 89.739977 C 238.28639 89.739977 240.17439 90.593594 240.97739 91.601793 C 241.15239 91.826793 241.35155 92.150854 241.28355 92.436754 C 240.71855 94.870752 238.10692 98.133422 236.91392 98.650621 C 236.74092 98.724421 236.63719 98.735582 236.59019 98.735582 z M 228.06333 97.793688 C 227.97133 97.793688 227.68785 97.793104 227.27085 97.351305 C 225.54285 95.538007 224.63381 89.993572 224.62681 87.652574 C 224.96381 87.417474 225.69736 87.199937 226.91636 87.199937 C 230.26136 87.199937 233.49009 88.680655 233.61509 89.382555 L 233.60776 89.489488 C 232.77777 93.005185 230.95803 96.998332 228.30503 97.758531 L 228.06333 97.793688 z M 216.58482 94.538805 C 216.21526 94.550452 215.86315 94.348839 215.46421 93.927965 C 213.74521 92.119767 212.57866 87.312643 212.52866 85.157945 C 212.92666 84.874745 213.82921 84.633531 215.19321 84.633531 C 218.56621 84.633531 221.60049 85.935252 221.72349 86.599351 C 221.02949 89.585248 219.76309 93.660325 216.84409 94.496324 C 216.75616 94.521656 216.6701 94.536117 216.58482 94.538805 z M 328.63951 92.867418 C 328.07051 92.454518 328.07534 89.839317 328.66734 85.096422 C 328.76034 84.356522 328.84067 83.701278 328.88267 83.202379 C 329.02167 83.095379 329.26319 82.984117 329.69419 82.984117 C 330.94919 82.984117 332.70386 83.906494 333.60386 85.039293 C 333.97086 85.501492 334.13875 85.93883 334.06675 86.24193 C 333.51375 88.619627 331.2506 91.901025 328.8856 92.808824 C 328.7416 92.863924 328.66651 92.867418 328.63951 92.867418 z M 321.23179 91.651598 C 320.63379 91.655498 320.1766 91.262651 319.8856 90.911852 C 317.9006 88.508754 316.68672 82.389041 317.00572 79.828843 C 317.22872 79.681944 317.73789 79.509508 318.68589 79.509508 C 318.95789 79.509508 319.23839 79.545001 319.51939 79.568101 C 321.52239 80.047001 323.48046 80.661604 325.41245 81.334703 C 326.23845 81.789302 326.78235 82.23614 326.83335 82.53734 L 326.83042 82.636949 C 326.16842 85.417046 324.17579 90.809399 321.23179 91.651598 z M 204.35776 91.62816 C 203.86272 91.61287 203.38825 91.356542 202.9105 90.851793 C 201.4885 89.357594 200.62061 86.286557 200.57261 84.611558 C 201.30861 83.966659 203.48048 83.337144 206.14048 83.337144 C 208.48748 83.337144 209.60425 83.841596 209.75425 84.072496 C 209.35325 85.622494 208.19267 90.611443 204.86167 91.562242 C 204.69117 91.610492 204.52278 91.633257 204.35776 91.62816 z M 308.55064 87.838609 C 308.44064 87.838609 308.1085 87.838392 307.6395 87.343492 C 305.99451 85.617694 305.14962 80.754229 305.13462 78.633531 C 305.50962 78.345231 306.32364 78.067619 307.52964 77.946519 C 308.78364 77.986319 310.0409 78.061259 311.2899 78.182359 C 311.7709 78.225359 312.24551 78.312859 312.72251 78.369859 C 313.82851 78.673759 314.5326 79.055573 314.6356 79.323472 C 313.9696 82.11957 311.81467 86.94493 308.84068 87.796129 C 308.73668 87.823029 308.64364 87.838609 308.55064 87.838609 z M 297.05601 86.176012 C 296.5597 86.160093 296.08728 85.900039 295.60728 85.396715 C 294.38328 84.110016 293.5747 81.656551 293.3397 79.928453 C 293.8497 79.738653 294.3579 79.554577 294.8939 79.373277 C 296.9929 78.758478 299.16691 78.369538 301.3729 78.145738 C 302.0149 78.305538 302.37303 78.497118 302.45103 78.617418 C 302.05003 80.167416 300.89138 85.158095 297.56138 86.110094 C 297.38938 86.158819 297.22145 86.181318 297.05601 86.176012 z "
       transform="translate(0)" />
    <path
       id="path3022"
       style="display:inline;fill:#ffcc00;fill-opacity:1;fill-rule:nonzero;stroke:none;stroke-width:0.1"
       d="M 383.65904 580.41577 C 382.47329 580.36677 381.29037 580.25957 380.12437 580.09057 C 377.84137 579.77357 375.54479 579.16269 373.35679 578.23169 C 371.17779 577.30369 369.07544 576.20063 367.10044 574.90063 C 365.15545 573.56663 363.33828 572.05461 361.71128 570.35962 C 360.12629 568.62762 358.72882 566.7376 357.58482 564.6936 C 356.51482 562.6176 355.60301 560.45033 355.07701 558.16333 C 354.54301 555.84333 354.24634 553.62092 354.27134 551.20092 L 354.28453 549.37133 C 354.33853 548.89334 354.35719 548.2403 354.44419 547.6853 C 354.58719 546.5273 354.81044 545.37913 355.10044 544.23413 C 356.24444 539.65613 358.32734 535.28543 360.64634 531.07544 C 365.37034 522.66144 371.212 514.84844 376.994 507.01245 C 382.80899 499.18946 388.71982 491.39458 394.23082 483.27758 C 399.70881 475.14859 404.93827 466.75234 408.92027 457.64135 C 410.27427 454.56436 411.46401 451.36929 412.45201 448.10229 C 420.461 429.52031 419.90741 405.60444 410.24742 391.82446 C 409.66142 390.22646 409.01964 388.62026 408.30064 386.99926 C 408.31164 386.90526 408.31787 386.8275 408.33287 386.6975 C 408.38587 386.2945 408.4105 385.69497 408.4105 384.92797 C 408.3645 383.42997 408.08554 381.03931 406.34654 378.87231 C 405.47454 377.82631 404.28358 376.89837 402.88658 376.30737 C 401.49158 375.69737 399.9194 375.39361 398.31041 375.35961 C 397.42141 375.34861 396.52135 375.43931 395.62535 375.60131 C 394.89535 375.73431 394.16459 375.90449 393.44859 376.15649 C 391.89659 376.71949 390.2872 377.63807 389.1522 378.90307 C 387.9522 380.16607 387.21398 381.80651 386.86998 383.42651 C 386.52098 385.06051 386.50984 386.68201 386.60484 388.21801 C 386.80884 391.29901 387.38637 394.0877 387.62437 396.5017 C 387.89737 398.9057 387.79112 400.96605 387.23912 402.27905 C 386.72912 403.61004 385.99887 404.11261 386.04087 404.13061 C 385.99887 404.10961 386.7504 403.64667 387.3314 402.31567 C 387.9524 401.00867 388.15758 398.91094 387.99058 396.47094 C 387.85858 394.02594 387.40458 391.20318 387.34458 388.19018 C 387.31358 386.68718 387.40429 385.1337 387.79429 383.6477 C 388.18129 382.1647 388.89749 380.76466 389.99449 379.71166 C 391.08949 378.59566 392.42525 377.91797 393.87925 377.42797 C 394.60225 377.20097 395.33566 377.04143 396.07066 376.95043 C 396.80866 376.85743 397.54407 376.83047 398.26207 376.86547 C 399.69206 376.94547 401.05157 377.26655 402.19957 377.82055 C 403.35656 378.35955 404.2725 379.14652 404.9315 379.98852 C 406.2335 381.73052 406.4072 383.65869 406.4022 384.93969 C 406.3922 385.23169 406.37619 385.48499 406.36119 385.71899 C 404.60419 385.10999 402.97051 384.78735 401.49351 384.78735 L 401.49205 384.78735 C 400.51705 384.78735 399.63645 384.96048 398.80845 385.21948 C 395.39446 386.29247 393.26235 389.46662 393.00035 394.21362 L 392.98277 394.50073 L 393.11753 394.75854 C 399.22453 406.33753 400.95996 421.07286 398.93296 435.49584 L 398.18736 435.11059 C 398.09336 435.29159 398.01817 435.40534 397.96617 435.47534 C 397.67317 435.43834 397.1115 435.27128 396.6815 435.14428 C 393.8215 434.29828 389.03572 432.88371 380.21373 436.73071 C 369.28574 441.4997 351.16605 425.59328 349.09605 421.74829 L 348.223 420.12377 L 346.50328 420.79321 C 307.24731 436.05619 275.10424 408.32556 263.10825 395.69457 C 247.80127 379.57859 242.06843 364.96054 243.41343 361.96655 C 243.88343 360.92155 247.74457 359.39661 250.05357 358.48461 C 253.92956 356.95361 257.27754 355.62996 258.42954 353.32397 C 272.90853 324.329 282.41375 305.11452 333.0897 306.21752 C 337.8667 306.31652 342.48313 306.21345 346.94712 306.11645 C 354.85612 305.94445 365.67686 305.70403 366.60386 307.84203 C 366.67986 308.01403 367.17148 309.66409 361.76548 315.19408 C 350.37249 326.85107 337.80821 360.58743 339.3812 383.34741 C 339.4152 383.8384 339.48269 384.28884 339.52769 384.76684 C 334.82369 400.86982 319.00032 409.66153 313.08433 412.44653 L 312.94663 412.46557 C 310.99664 412.66757 309.06519 412.77319 307.19419 412.77319 C 303.4512 412.76919 299.96422 412.3108 297.04722 411.5808 C 296.32322 411.3798 295.63061 411.18712 294.96861 411.00512 C 294.32161 410.77512 293.70823 410.55534 293.13023 410.35034 C 291.97623 409.94534 291.03219 409.4345 290.21519 409.0935 C 288.66719 408.2455 287.78062 407.76049 287.78062 407.76049 C 287.78062 407.76049 288.6353 408.3037 290.1273 409.2517 C 290.9223 409.6457 291.84228 410.22036 292.98228 410.70336 C 293.55428 410.95036 294.15868 411.21305 294.79868 411.48705 C 295.45468 411.71705 296.14551 411.95822 296.86851 412.20922 C 299.77951 413.14022 303.31679 413.84248 307.14878 414.09448 C 309.06678 414.21848 311.05415 414.23546 313.07115 414.15746 C 315.08414 414.05746 317.13397 413.90294 319.16197 413.61694 C 327.31396 412.56194 335.19155 410.07742 340.92954 407.86743 C 343.80354 406.75643 346.15673 405.72139 347.79673 404.95239 C 349.41873 404.19139 350.37686 403.68237 350.37486 403.68237 L 349.34507 401.86889 L 350.62242 400.21801 C 346.49142 397.02001 344.11129 391.24829 343.54429 383.0603 C 342.27629 364.71731 350.5434 338.99432 359.64439 324.74633 C 364.09038 320.38833 369.66141 315.39163 373.9354 309.60863 C 382.6934 297.76365 386.52743 280.7249 378.51744 285.34789 C 359.08346 296.56488 344.80393 286.30136 313.43296 291.34936 C 276.538 297.28035 261.8802 326.17468 259.4022 340.33666 C 259.3292 340.75966 259.26916 341.16427 259.21616 341.56127 C 255.72417 338.16527 249.4259 334.57938 241.47691 330.05639 C 220.21993 317.9534 188.09234 299.66433 182.35435 267.93236 C 177.21935 239.53339 187.07789 221.8392 194.99888 207.62621 C 200.74287 197.32122 205.70488 188.41944 204.10288 178.07445 C 203.36588 173.29146 201.14502 165.47705 198.57603 156.42406 C 192.28403 134.25608 182.77451 100.75595 189.99351 90.744859 C 192.0005 87.960162 195.15038 86.370621 198.56138 85.471422 C 198.80538 87.58352 199.74978 90.555342 201.39878 92.28734 C 202.57078 93.523239 204.01196 93.978078 205.43296 93.569078 C 208.27796 92.758179 209.86832 90.121127 210.77232 87.796129 C 211.27731 90.437126 212.36349 93.694808 213.95249 95.367906 C 214.99049 96.462005 216.20738 96.851695 217.41538 96.501695 C 220.29538 95.680596 221.87457 92.903675 222.78257 90.435777 C 223.17157 93.292774 224.07974 97.026883 225.75474 98.789781 C 226.66574 99.74478 227.75932 100.0808 228.87632 99.763903 C 230.96532 99.167003 232.46885 97.440432 233.54185 95.533434 C 233.67885 97.528332 234.05329 99.183115 234.89829 100.07591 C 235.22029 100.41491 235.60683 100.62031 236.02183 100.7263 C 235.57883 102.2703 235.11013 103.95829 234.65513 105.83129 C 233.88313 108.89828 233.1541 112.39933 232.5311 116.24632 C 231.96911 120.10132 231.43526 124.30632 231.33726 128.78832 C 231.20726 133.26531 231.38499 138.00468 232.03599 142.85668 C 232.68799 147.70367 233.77811 152.66063 235.36411 157.52562 C 236.90811 162.40462 238.91522 167.18517 240.90122 171.87816 C 242.82022 176.54216 244.9278 181.30054 244.9398 185.88353 C 244.9438 188.12353 244.23541 190.57438 243.74741 192.97338 C 243.18341 195.36537 242.62349 197.72658 242.07749 200.04857 C 239.75649 209.34856 237.59465 218.02948 235.73765 225.46947 C 234.83365 229.20147 234.06348 232.64094 233.41148 235.69994 C 232.77448 238.76194 232.28682 241.4546 231.95982 243.69359 C 231.82482 244.82759 231.67432 245.8105 231.60532 246.7185 C 231.55732 247.64249 231.51914 248.42378 231.48814 249.06078 C 231.56814 250.25378 231.61265 250.8933 231.61265 250.8933 L 233.3397 250.75853 C 233.3397 250.75853 233.30555 250.12155 233.24155 248.92455 C 233.28255 248.36455 233.33143 247.67158 233.39243 246.86059 C 233.46543 246.03859 233.63276 245.04905 233.77476 243.96605 C 234.12576 241.78506 234.6481 239.14049 235.3231 236.11449 C 236.0161 233.08949 236.83197 229.6833 237.78696 225.97631 C 239.75396 218.56932 242.04728 209.92433 244.50327 200.66234 C 244.94927 198.89234 245.40472 197.08225 245.85972 195.27025 C 246.47372 195.08725 247.08756 194.92857 247.69956 194.79857 C 263.79755 191.33558 279.46556 205.49261 285.74156 216.7976 C 285.46456 217.1676 285.14594 217.59396 284.78794 218.11596 C 284.27994 218.81096 283.74043 219.66032 283.16343 220.55932 C 282.57843 221.45331 282.03042 222.46813 281.45542 223.44213 C 280.94142 224.46713 280.41932 225.47706 279.98032 226.44506 C 279.59332 227.44506 279.21543 228.35809 278.93443 229.15209 C 278.51443 230.78309 278.2357 231.86937 278.2357 231.86937 C 278.2357 231.86937 278.75076 230.89262 279.52476 229.42162 C 279.97676 228.73162 280.54497 227.94756 281.11997 227.11156 C 281.75097 226.29856 282.47043 225.4693 283.16343 224.6433 C 283.92743 223.8563 284.64367 223.04649 285.38267 222.3435 C 285.92267 221.8325 286.41746 221.36332 286.89146 220.93432 C 286.59646 224.90531 286.47104 228.12937 286.63804 230.53637 C 286.65204 231.96537 286.85401 232.94877 286.93101 233.64477 C 287.02101 234.33276 287.0687 234.68773 287.0687 234.68773 L 289.1854 234.44457 C 289.1854 234.44457 289.15458 234.08428 289.09458 233.39428 C 289.04658 232.70728 288.88624 231.65002 288.94224 230.38402 C 288.87424 227.86203 289.2247 223.90739 289.8607 218.9934 C 290.5127 214.0514 291.43747 208.04634 292.55747 201.14135 C 293.67747 194.23335 294.85135 186.40499 295.60435 177.739 C 295.94735 173.40501 296.2297 168.85965 295.9647 164.08666 L 295.87388 162.24242 L 295.67759 160.4934 C 295.49559 159.2944 295.30445 157.99117 295.03745 156.81517 C 294.55445 154.39618 293.9093 152.00914 293.2313 149.60814 C 290.4773 140.02815 286.80746 130.30161 283.99546 120.02562 C 282.58446 114.89463 281.40534 109.62415 280.87534 104.27416 C 280.44434 98.974362 280.57923 93.402002 282.90122 88.751207 C 284.03622 86.439109 285.70701 84.431747 287.78501 82.878648 L 288.56284 82.289781 L 288.63755 82.235582 L 288.67124 82.213609 L 288.90269 82.086168 L 289.37144 81.82689 L 291.23765 80.786851 L 291.3607 80.735582 C 291.7177 82.76328 292.62756 85.290993 294.09556 86.835191 C 295.27156 88.06719 296.70867 88.528364 298.13267 88.115465 C 300.98567 87.298266 302.57888 84.650811 303.47788 82.317613 C 303.93188 84.688711 304.76032 87.346335 306.12632 88.783434 C 307.07832 89.784233 308.22897 90.1405 309.41197 89.8015 C 312.01096 89.057701 313.92208 86.480274 315.15708 83.927476 C 315.63808 86.944273 316.71574 90.348932 318.27574 92.24193 C 319.32873 93.522728 320.57048 94.010868 321.80747 93.656969 C 323.63647 93.133169 325.06481 91.594149 326.14781 89.841051 C 326.09881 91.810249 326.3068 93.383907 327.0648 94.242906 C 327.1828 94.371806 327.31838 94.469072 327.45738 94.565172 C 325.43838 98.760868 324.26304 103.2748 323.65904 107.72679 C 322.89804 113.36579 322.97699 118.96612 323.43199 124.40111 C 323.88999 129.8601 324.89438 135.09674 325.68638 140.18773 C 326.07538 142.74073 326.53746 145.2717 327.01646 147.77269 C 327.48646 150.27269 327.9274 152.74583 328.4564 155.16283 C 329.4164 160.02482 330.63609 164.66665 331.11509 169.12865 C 331.62809 173.59565 331.26131 178.01269 331.04331 182.33568 C 330.49831 190.91667 330.96363 199.03866 331.96763 205.98266 C 332.96163 212.98065 334.52143 218.96826 336.20542 223.77025 C 337.88542 228.57325 339.69125 232.18849 341.27525 234.51049 C 342.03425 235.68349 342.81323 236.50434 343.38023 237.03734 C 344.01823 237.53634 344.34703 237.7932 344.34703 237.7932 L 345.29917 236.20531 C 345.29917 236.20531 345.06549 236.01367 344.61949 235.64867 C 344.19449 235.23067 343.53249 234.53708 342.84849 233.44408 C 341.42149 231.30708 339.70569 227.80014 338.13169 223.10814 C 336.78069 219.11615 335.54336 214.21183 334.64536 208.62084 C 367.72633 212.93983 375.68243 246.39106 380.45542 266.52904 C 382.07742 273.36404 383.24485 278.29762 385.04185 280.79662 C 394.57284 294.07161 394.69051 319.86388 393.13951 332.61987 C 392.62651 332.26787 392.11228 331.92339 391.60728 331.55639 C 387.99728 328.93739 384.55336 325.89856 383.18736 322.84057 C 382.82136 322.09757 382.63357 321.35618 382.53257 320.69018 C 382.44257 320.02518 382.43818 319.42269 382.52818 318.93969 C 382.66018 317.96569 382.9435 317.44229 382.9105 317.43529 C 382.9435 317.44829 382.60286 317.92553 382.35386 318.90453 C 382.20386 319.38753 382.13478 320.01187 382.14878 320.72387 C 382.17278 321.43187 382.28591 322.24687 382.58091 323.07787 C 383.66491 326.49987 386.90446 330.06765 390.28746 333.17065 C 391.10146 333.91565 391.93172 334.64148 392.75572 335.34447 C 392.73672 335.46147 392.71959 335.60162 392.69859 335.71362 L 393.31968 335.82201 C 395.75268 337.87201 398.1182 339.72173 399.9232 341.25072 C 400.6712 341.88372 401.31357 342.45734 401.82457 342.95434 C 398.84257 343.04534 395.86859 343.12809 392.9066 343.04809 C 391.0296 342.97909 389.1404 342.86701 387.3314 342.46801 C 386.4374 342.26201 385.54505 341.98256 384.82505 341.48656 C 384.48805 341.26756 384.23587 340.97242 384.06187 340.63842 C 383.94687 340.42142 383.86535 340.19108 383.83335 339.94408 C 383.80735 339.73808 383.81147 339.52248 383.84947 339.30248 L 383.36314 339.21752 C 383.09614 340.22152 383.57648 341.41851 384.43248 342.00951 L 384.53501 342.07104 C 385.32901 342.65804 386.23072 342.99749 387.13072 343.26049 C 389.01272 343.79149 390.93222 344.01074 392.83921 344.18774 C 396.66221 344.51274 400.47872 344.57639 404.27671 344.68139 C 408.07271 344.78439 411.86338 344.88661 415.58238 345.25561 C 417.43838 345.44661 419.27927 345.70258 421.02427 346.13158 C 421.73627 346.30558 422.43796 346.53369 423.09996 346.79369 C 422.78396 346.84469 422.48932 346.90743 422.16832 346.95043 L 417.71959 347.44701 C 414.70959 347.77001 411.66037 348.15436 408.62437 348.82836 C 405.59337 349.51136 402.53936 350.44681 399.68736 352.05981 C 398.26836 352.86681 396.90663 353.8552 395.71763 355.0642 C 395.12063 355.6702 394.56694 356.32542 394.07994 357.03442 C 393.84094 357.38742 393.60621 357.74256 393.38121 358.15356 C 393.13721 358.59156 393.03985 358.77144 392.81285 359.26244 C 392.46685 359.99444 392.1495 360.78169 391.9105 361.68969 C 391.7895 362.28469 391.61641 363.0393 391.76841 363.9353 C 391.82741 364.2943 391.94827 364.67859 392.14927 365.08959 L 392.2313 365.30199 C 392.6903 366.03499 393.40465 366.48857 393.98765 366.71557 C 394.59165 366.95857 395.09833 367.03064 395.58433 367.08764 C 396.53633 367.17964 397.36185 367.13778 398.16685 367.08178 C 401.33485 366.82178 404.21075 366.32938 407.08775 366.22338 C 410.02775 366.12738 413.03819 366.06827 415.84019 366.31127 C 416.53319 366.37527 417.21345 366.46931 417.82945 366.60131 C 418.20045 366.67231 418.54643 366.78489 418.80943 366.88989 C 418.64443 367.12989 418.41595 367.42127 418.12095 367.70727 L 418.11656 367.71166 L 417.54527 368.34594 C 417.19427 368.31894 416.8198 368.30053 416.4188 368.30053 C 414.71481 368.30053 412.66359 368.6106 411.07359 369.7976 C 409.52859 370.9486 408.68896 372.71972 408.57896 375.06371 L 408.56871 375.27172 L 408.70494 375.42699 C 409.89394 376.80999 411.02142 378.17542 412.12242 379.53442 L 412.1107 379.55785 L 412.15318 379.56957 C 445.79415 421.13853 438.41967 452.18872 420.90269 477.56469 L 420.89537 477.57934 C 413.22937 488.67933 403.62858 498.69645 394.67759 508.03344 C 383.9116 519.26343 374.30782 529.30461 369.68882 539.1936 C 369.57582 539.4016 369.44287 539.59683 369.33287 539.80883 C 368.16887 542.03383 367.15869 544.37281 366.52769 546.8518 C 366.23769 548.0958 365.96933 549.33772 365.85533 550.66772 C 365.75633 551.33872 365.75607 551.93612 365.74107 552.54712 L 365.7191 553.45971 L 365.77037 554.50415 C 366.26537 559.79114 369.08169 564.46509 372.79869 567.94409 C 374.67968 569.68009 376.84358 571.13943 379.26158 572.11743 C 381.68257 573.06743 384.33428 573.60605 387.10728 573.00805 C 389.76828 572.32005 391.86076 570.77554 393.89976 569.77954 C 394.35376 569.56154 394.82198 569.39545 395.11998 569.36645 C 394.97698 569.57645 394.77141 569.84179 394.56041 570.06079 L 393.31968 571.34546 C 392.46268 572.23346 391.55326 573.12704 390.81626 574.36303 C 390.45126 574.97103 390.1393 575.81829 390.1483 576.62329 C 390.1433 577.45429 390.41359 578.23639 390.71958 578.84839 L 391.14439 579.67163 L 391.19566 579.78149 C 391.04766 579.84549 390.84367 579.9112 390.65367 579.9602 C 389.54567 580.2022 388.39621 580.32687 387.21421 580.39087 C 386.03421 580.45587 384.84479 580.46477 383.65904 580.41577 z M 381.12046 244.38353 C 378.70947 229.59055 370.59097 210.78734 347.63999 197.22435 C 350.96299 190.20436 354.48538 180.7215 352.79038 171.00951 C 351.90739 165.93751 351.25631 159.09034 354.08531 151.09935 C 354.84631 148.95436 354.17628 144.88429 352.71128 136.6223 C 350.20629 122.49432 346.01447 98.844878 356.16246 95.039781 C 358.97345 93.985882 362.07114 93.232479 365.25914 92.71068 C 365.52913 94.939578 366.83535 98.167284 368.62535 100.04808 C 369.98434 101.48008 371.51384 102.0057 373.00083 101.5847 C 375.86183 100.7677 376.95732 98.143398 377.54332 95.747301 C 378.16431 97.992299 379.22436 100.50962 380.66636 102.02562 C 381.81736 103.23862 383.12543 103.69061 384.41343 103.31761 C 386.80943 102.63161 388.13312 100.45104 388.94712 98.178942 C 389.35212 100.04204 390.03246 101.97437 391.14146 103.14037 C 392.01246 104.05637 393.10542 104.382 394.22642 104.135 C 393.25742 107.19199 392.10394 110.51652 390.91294 113.94652 C 385.94195 128.24351 379.75457 146.03994 381.78257 159.74193 C 383.49757 171.35292 383.00071 178.21572 382.42271 186.16771 C 382.04771 191.32371 381.6216 197.16537 381.7606 205.03637 C 382.0156 219.57735 382.08546 232.37055 381.12046 244.38353 z M 278.83042 189.37572 C 275.29843 187.85572 271.31253 186.67358 267.22154 186.00658 C 283.65152 151.60361 264.61288 122.37831 274.56187 125.95531 C 289.14285 172.13926 283.01242 185.53072 278.83042 189.37572 z "
       transform="translate(0)" />
    <path
       style="display:inline;fill:#e9afaf;fill-opacity:1;fill-rule:nonzero;stroke:none;stroke-width:0.1"
       d="m 417.388,352.651 c -7.302,-0.91 -18.129,6.03 -17.347,8.247 0.079,0.491 1.665,1.266 3.75,1.311 1.776,-2.038 4.558,-5.097 5.308,-5.164 -0.826,0.894 -1.922,3.116 -2.692,4.81 1.59,-0.471 3.236,-1.467 4.614,-3.333 1.874,-3.03 5.584,-5.871 6.367,-5.871"
       id="path3000" />
    <path
       id="path3032"
       style="display:inline;fill:#f4eed7;fill-opacity:1;fill-rule:nonzero;stroke:none;stroke-width:0.1"
       d="M 384.36509 474.88696 C 402.67107 453.33798 407.56739 418.0056 395.1024 394.04662 C 395.3104 391.23963 396.44752 386.87475 401.49351 386.87475 C 402.94651 386.87475 404.61347 387.24145 406.45347 387.97045 C 419.86846 418.40542 408.6872 444.61381 403.23521 454.4978 C 397.84922 464.26679 390.54009 472.04296 384.36509 474.88696 z M 460.39781 462.77563 C 461.60981 446.60365 456.59629 430.22057 447.1483 417.00659 C 446.6613 411.60059 445.43239 401.07442 442.89439 395.01342 C 455.35038 406.86241 460.52968 420.1435 462.59068 430.26049 C 465.27668 443.46048 463.56981 455.32664 460.39781 462.77563 z "
       transform="translate(0)" />
    <path
       id="path3088"
       style="display:inline;fill:#ffdd55;fill-opacity:1;fill-rule:nonzero;stroke:none;stroke-width:0.1"
       d="m 379.99693,525.60278 c 4.44999,-5.37699 9.7746,-10.94564 15.43359,-16.84863 3.803,-3.967 7.72441,-8.05584 11.56641,-12.29883 0.085,-0.095 0.19287,-0.16247 0.31787,-0.20947 0.331,-0.12 0.84848,-0.0515 1.81348,0.35449 0.246,0.103 0.51145,0.22414 0.81445,0.36914 l -0.23145,0.23144 c -6.96199,6.776 -14.27986,13.22169 -21.38086,19.97168 -2.85199,2.713 -5.63649,5.52218 -8.33349,8.43018 z m 30.72656,-29.40967 c -1.063,-0.53 -1.91124,-0.87509 -2.59424,-0.99609 0.754,-0.844 1.50647,-1.69376 2.25147,-2.55176 l 10e-4,10e-4 c 0.095,-0.11 0.19304,-0.20218 0.29004,-0.28418 0.682,-0.57899 1.49583,-0.51507 3.19483,0.27393 0.094,0.043 0.18511,0.0823 0.28711,0.1333 -1.132,1.151 -2.27767,2.28934 -3.43067,3.42334 z m 4.20703,-4.20264 c -1.174,-0.591 -2.1881,-1.00389 -3.0791,-1.04589 0.757,-0.889 1.51093,-1.78406 2.25293,-2.68506 0.197,-0.126 0.41674,-0.18889 0.63574,-0.25489 0.785,-0.23 1.75056,-0.0792 3.03955,0.50977 l 0.28125,0.14502 c -1.03799,1.114 -2.06837,2.23606 -3.13037,3.33105 z m 3.89356,-4.14257 c -1.111,-0.571 -2.27333,-1.01661 -3.38233,-1.01661 l -0.19189,0.0234 c 1.015,-1.255 2.01328,-2.52406 2.98828,-3.81006 l 0.0264,0.0337 c 0.084,-0.078 0.18683,-0.13385 0.29883,-0.17285 0.66099,-0.232 1.79782,0.14504 2.92382,0.93604 0.178,0.124 0.35528,0.25537 0.53028,0.40137 -1.052,1.21099 -2.10636,2.42198 -3.19336,3.60498 z m 3.86426,-4.38428 c -1.219,-1.02 -2.47849,-1.60388 -3.52149,-1.65088 0.823,-1.108 1.6266,-2.22503 2.4126,-3.35303 l -0.51709,-0.17138 0.49805,0.1538 c 0.039,-0.126 0.0857,-0.1438 0.11572,-0.1538 0.465,-0.172 1.67691,0.46102 2.7539,1.10302 0.395,0.236 0.76906,0.46651 1.08106,0.66651 -0.92,1.151 -1.86576,2.28276 -2.82275,3.40576 z m 3.46142,-4.23633 c -1.547,-0.982 -2.80016,-1.70602 -3.78515,-1.91602 0.63099,-0.92499 1.25256,-1.85492 1.85156,-2.79492 0.188,-0.067 0.39749,-0.1083 0.62549,-0.1333 0.964,-0.096 2.22387,0.20839 3.42187,1.02539 0.176,0.121 0.35042,0.25391 0.52442,0.3999 -0.848,1.163 -1.74719,2.28595 -2.63819,3.41895 z m 3.23731,-4.24805 c -1.384,-1.132 -2.91278,-1.66259 -4.19678,-1.66259 l -0.23877,0.022 c 0.619,-0.999 1.22115,-2.00605 1.80615,-3.01904 0.281,-0.111 0.57637,-0.15739 0.88037,-0.17139 0.809,-0.03 1.7156,0.25993 2.7876,0.75293 0.412,0.189 0.84264,0.40114 1.30664,0.64013 -0.756,1.161 -1.53821,2.30799 -2.34521,3.43799 z m 2.91357,-4.31543 c -1.771,-0.91 -3.22906,-1.57617 -4.56006,-1.57617 -0.103,0 -0.19929,0.0213 -0.30029,0.0293 0.629,-1.134 1.23108,-2.27906 1.80908,-3.43506 0.05,-0.051 0.12898,-0.0934 0.22998,-0.12744 0.444,-0.159 1.47744,-0.0629 3.77344,0.95215 0.376,0.168 0.78354,0.35815 1.22754,0.57715 -0.697,1.20899 -1.42569,2.40207 -2.17969,3.58007 z m 2.70117,-4.48242 c -2.331,-1.15 -4.00137,-1.7417 -5.10937,-1.7417 l -0.0381,0.006 c 0.542,-1.132 1.06327,-2.2728 1.55127,-3.4248 0.092,-0.069 0.19855,-0.11721 0.31055,-0.15821 1.009,-0.379 2.77813,0.29949 4.55713,1.16748 0.243,0.117 0.48124,0.23643 0.71924,0.35743 -0.633,1.27899 -1.29273,2.54794 -1.99073,3.79394 z m 2.44483,-4.73291 c -1.801,-0.914 -3.64399,-1.74902 -5.10498,-1.74902 -0.151,0 -0.27609,0.0421 -0.41309,0.0601 0.614,-1.523 1.17897,-3.06491 1.68897,-4.62891 0.48799,-0.02 1.09371,0.011 1.78271,0.104 1.155,0.156 2.52113,0.49585 3.91113,1.08985 0.105,0.045 0.21041,0.0995 0.31641,0.14648 -0.662,1.687 -1.39715,3.34254 -2.18115,4.97754 z m 2.54443,-5.96191 c -2.264,-1.014 -4.53502,-1.39372 -6.04102,-1.40772 0.441,-1.417 0.83767,-2.85118 1.18067,-4.30517 0.115,-0.059 0.35791,-0.147 0.87891,-0.167 1.48199,-0.058 3.89041,0.51706 5.50341,1.35205 -0.451,1.529 -0.96197,3.03684 -1.52197,4.52784 z m 1.83252,-5.54297 c -1.697,-0.842 -3.99417,-1.38428 -5.59717,-1.38428 l -0.25781,0.006 c -0.231,0.008 -0.39401,0.0574 -0.58301,0.0894 0.333,-1.506 0.6081,-3.03311 0.8291,-4.57911 1,-0.791 3.77765,-0.41601 6.76465,0.81299 -0.322,1.697 -0.69176,3.38718 -1.15576,5.05518 z m 1.35059,-6.08789 c -1.744,-0.693 -3.69249,-1.24805 -5.29248,-1.24805 -0.557,0 -1.05215,0.082 -1.49415,0.22998 0.195,-1.595 0.32598,-3.2131 0.39698,-4.8501 1.931,-0.555 4.79152,-0.3445 7.08252,0.4585 -0.152,1.813 -0.38287,3.61567 -0.69287,5.40967 z m 0.76757,-6.4541 c -1.45599,-0.476 -3.11547,-0.78809 -4.70947,-0.78809 -0.858,0 -1.65567,0.11976 -2.40967,0.30176 0.037,-1.352 0.0238,-2.72543 -0.0322,-4.10742 0.06,-0.077 0.25195,-0.22024 0.73095,-0.34424 1.525,-0.394 4.37594,-0.22892 6.58594,0.41308 0.003,1.51 -0.0595,3.01991 -0.16553,4.52491 z m 0.15528,-5.58692 c -1.435,-0.391 -3.02641,-0.60937 -4.44141,-0.60937 -0.917,0 -1.75148,0.082 -2.39648,0.24902 -0.212,0.054 -0.35402,0.13654 -0.52002,0.20654 -0.078,-1.317 -0.19928,-2.65102 -0.36328,-3.99902 0.08,-0.079 0.18798,-0.16138 0.33398,-0.23438 1.226,-0.63599 4.11486,-0.7691 7.13086,-0.1831 0.135,1.521 0.22735,3.04331 0.25635,4.57031 z m -7.8794,-5.30713 c -0.168,-1.201 -0.36544,-2.40881 -0.60644,-3.63281 0.058,-0.156 0.35213,-0.43217 1.01513,-0.72217 1.42,-0.621 4.08232,-1.06025 6.44532,-0.76025 0.018,0.096 0.0377,0.19011 0.0557,0.28711 0.265,1.489 0.45477,2.98921 0.61377,4.49121 -1.243,-0.222 -2.48981,-0.3457 -3.63281,-0.3457 -1.605,0 -3.00091,0.22175 -3.87891,0.67675 z m -0.85986,-4.82812 c -0.254,-1.177 -0.5354,-2.36164 -0.8584,-3.55664 1.029,-1.113 4.01472,-2.19611 7.40772,-2.16211 0.363,1.445 0.68154,2.89637 0.95654,4.35937 -0.456,-0.044 -0.91642,-0.0747 -1.37842,-0.0747 -2.043,0 -4.04583,0.41314 -5.27783,0.95214 -0.342,0.149 -0.61461,0.31094 -0.84961,0.48194 z m -1.17627,-4.67871 c -0.375,-1.314 -0.78698,-2.63852 -1.25098,-3.97852 0.793,-1.046 3.44966,-2.81955 7.13965,-3.31055 0.578,1.711 1.11317,3.43576 1.57617,5.17676 -3.22299,0.011 -6.02984,0.98631 -7.46484,2.11231 z m -1.6582,-5.09766 c -0.506,-1.396 -1.05174,-2.80301 -1.65674,-4.229 0.631,-1.234 3.24971,-3.47558 6.92871,-4.03858 0.692,1.678 1.33952,3.37308 1.93652,5.08008 -3.28899,0.485 -5.91949,1.9115 -7.20849,3.1875 z m -2.15039,-5.34668 c -0.718,-1.625 -1.49868,-3.27006 -2.34668,-4.93506 0.505,-1.161 3.22635,-3.52923 7.00634,-4.15723 0.822,1.702 1.59836,3.42805 2.33936,5.16504 -3.32,0.591 -5.84603,2.44525 -6.99902,3.92725 z m -2.90186,-6.01465 c -0.663,-1.26 -1.36691,-2.53445 -2.10791,-3.81445 0.543,-1.14 3.23322,-3.71588 6.84522,-4.65088 0.47799,0.868 0.9834,1.71963 1.4414,2.59863 0.304,0.593 0.59216,1.19597 0.88916,1.79297 -3.41499,0.643 -5.98587,2.58673 -7.06787,4.07373 z m -2.69238,-4.80615 c -0.791,-1.338 -1.61903,-2.68776 -2.49903,-4.05176 0.558,-1.099 3.27056,-3.80098 7.06055,-4.62598 0.818,1.361 1.60051,2.73854 2.37451,4.12354 -3.29999,0.943 -5.88203,3.0862 -6.93603,4.5542 z m -3.12305,-4.99805 c -0.684,-1.038 -1.39535,-2.08369 -2.13135,-3.13769 0.345,-1.038 3.07175,-4.13633 7.11475,-4.88233 0.736,1.133 1.43314,2.28792 2.14014,3.44092 -3.431,0.866 -6.07654,3.0731 -7.12354,4.5791 z m -2.80664,-4.10156 c -0.799,-1.124 -1.6317,-2.25451 -2.4917,-3.39551 0.799,-1.367 3.80525,-3.86895 7.67725,-4.37695 0.67,0.977 1.35537,1.94555 2.00537,2.93555 -3.633,0.82199 -6.25592,3.32091 -7.19092,4.83691 z m -3.15674,-4.2583 c -0.757,-0.991 -1.54261,-1.98675 -2.34961,-2.98975 0.858,-1.408 3.77617,-4.22445 7.84717,-4.56445 0.731,1.004 1.44718,2.02009 2.15918,3.03809 -3.699,0.63599 -6.50174,2.91811 -7.65674,4.51611 z m -3.01758,-3.82324 c -0.703,-0.861 -1.42564,-1.7281 -2.16064,-2.6001 0.662,-1.286 3.85185,-4.2148 7.94385,-4.8208 0.689,0.909 1.3626,1.83191 2.03759,2.7539 -3.83899,0.55 -6.6588,3.011 -7.8208,4.667 z m -2.8667,-3.43946 -0.17431,-0.20654 c 0.132,-1.916 0.82696,-3.35334 2.06396,-4.27734 1.591,-1.184 3.77904,-1.33944 5.43604,-1.25245 l 0.6167,0.8042 c -3.861,0.746 -6.85839,3.30513 -7.94239,4.93213 z" />
    <path
       d="m 316.28728,231.25913 c 0,0 1.26534,3.20134 -5.67333,8.58267 -4.264,3.30267 -7.344,2.136 -8.34667,2.31733 -2.10933,0.38267 5.19334,-7.768 10.80534,-10.22266 l -0.22267,-0.17067 c -0.364,-0.176 -0.73333,-0.45867 -1.25067,-0.60267 -1.94266,-0.776 -5.13866,-0.88133 -7.93733,0.32667 -0.70933,0.276 -1.37333,0.64533 -1.99867,1.072 -0.64666,0.392 -1.17066,0.936 -1.72266,1.40667 -0.44534,0.56133 -0.988,1.044 -1.32667,1.62933 -0.33467,0.57733 -0.75333,1.08267 -0.96533,1.63867 -0.24,0.54666 -0.46,1.048 -0.65334,1.48933 -0.13733,0.468 -0.25333,0.87733 -0.34933,1.212 -0.19067,0.67867 -0.29733,1.064 -0.29733,1.064 0,0 0.0627,-0.39733 0.18,-1.08933 0.06,-0.35067 0.13333,-0.77467 0.22133,-1.25867 0.148,-0.472 0.316,-1.004 0.5,-1.58667 0.156,-0.59866 0.52667,-1.16133 0.81467,-1.808 0.292,-0.652 0.79466,-1.21866 1.22,-1.87733 0.528,-0.56267 1.04133,-1.21467 1.69466,-1.71867 0.63334,-0.54133 1.32,-1.02933 2.076,-1.42666 2.976,-1.67334 6.60934,-2.024 9.23467,-1.31867 0.66667,0.12533 1.25467,0.42933 1.78533,0.63733 0.54,0.272 1.03734,0.65334 1.41867,0.92534 0.50667,0.49466 0.79333,0.77866 0.79333,0.77866 m -19.18666,-7.02266 c -0.73334,1.07333 -1.372,2.22666 -2.25734,3.12933 -0.78933,1.00267 -1.72266,1.816 -2.648,2.55867 -0.868,0.82133 -1.86666,1.38933 -2.776,1.96533 -0.884,0.61733 -1.808,1.044 -2.664,1.41867 -0.85333,0.38 -1.604,0.76933 -2.32933,0.98133 -0.72,0.21867 -1.348,0.40933 -1.864,0.56667 -1.036,0.27466 -1.62933,0.43333 -1.62933,0.43333 0,0 0.512,-0.34133 1.40266,-0.936 0.448,-0.28267 0.99334,-0.62267 1.61467,-1.01467 0.62933,-0.36666 1.26,-0.92 2.00133,-1.41066 0.732,-0.50667 1.51334,-1.064 2.268,-1.73334 0.77067,-0.648 1.6,-1.3 2.34,-2.09066 0.38,-0.38 0.76934,-0.768 1.16534,-1.16 l 1.04666,-1.29067 c 0.776,-0.82133 1.26934,-1.83733 1.896,-2.76133 0.46267,-0.99867 1.028,-1.976 1.26534,-3.024 0.16933,-0.512 0.324,-1.02534 0.37066,-1.54 0.0587,-0.51467 0.23334,-1.02934 0.172,-1.52667 0.0453,-1.01867 -0.104,-1.964 -0.288,-2.88267 -0.324,-0.85466 -0.61333,-1.69466 -1.10666,-2.36266 -0.408,-0.72 -1.024,-1.21467 -1.48934,-1.71867 -0.56533,-0.35733 -1.008,-0.80667 -1.49733,-1.03333 -0.96667,-0.46534 -1.51867,-0.728 -1.51867,-0.728 0,0 0.60934,0.0693 1.676,0.20133 0.52267,0.0787 1.15467,0.37733 1.91067,0.67067 0.656,0.412 1.504,0.83333 2.144,1.596 0.31867,0.38 0.73333,0.73333 1.01067,1.196 0.26266,0.47733 0.53866,0.97066 0.816,1.47733 0.17866,0.55333 0.36133,1.12133 0.54666,1.70133 0.172,0.58667 0.16267,1.20934 0.24267,1.83734 0.10533,0.63866 -0.0267,1.26266 -0.056,1.91066 -0.0147,0.65334 -0.14667,1.28934 -0.34533,1.912 -0.27067,1.29467 -0.88534,2.46134 -1.42,3.65734 m 124.39199,-21.08934 c -2.748,13.48934 -9.65333,31.196 -26.26133,46.99467 3.384,-8.08133 5.02134,-22.116 5.67067,-29.324 12.59733,-17.61867 19.28266,-39.46267 17.66666,-61.02533 4.22934,9.932 6.50534,25.75466 2.924,43.35466 m -59.68133,84.87867 c -0.82133,0.176 -1.72933,0.30133 -2.65333,0.38667 -3.736,0.324 -7.74933,0.244 -11.66933,0.116 -3.836,-0.14134 -7.67067,-0.79734 -11.89467,-1.144 -1.07333,-0.0747 -2.17333,-0.12934 -3.44267,-0.007 -0.648,0.076 -1.324,0.17067 -2.12933,0.49467 -0.77733,0.30266 -1.72933,0.908 -2.34133,1.88533 l -0.10934,0.284 c -0.268,0.548 -0.43066,1.06 -0.50933,1.53867 -0.20267,1.19466 0.0293,2.2 0.19067,2.99333 0.31866,1.21067 0.74133,2.26133 1.20266,3.23733 0.30267,0.65467 0.432,0.89467 0.75734,1.47867 0.3,0.548 0.61333,1.02133 0.932,1.492 0.64933,0.94533 1.388,1.81867 2.184,2.62667 1.58533,1.612 3.40133,2.92933 5.29333,4.00533 3.80267,2.15067 7.87333,3.39733 11.91467,4.308 4.048,0.89866 8.11466,1.412 12.128,1.84266 l 5.93066,0.66267 c 0.428,0.0573 0.82134,0.14 1.24267,0.208 -0.88267,0.34667 -1.81733,0.65067 -2.76667,0.88267 -2.32666,0.572 -4.78133,0.91333 -7.256,1.168 -4.95866,0.492 -10.01466,0.628 -15.076,0.76533 -5.064,0.14 -10.152,0.22533 -15.24933,0.65867 -2.54267,0.236 -5.10267,0.528 -7.612,1.236 -1.2,0.35066 -2.40133,0.804 -3.46,1.58666 l -0.13733,0.0827 c -1.14134,0.788 -1.78134,2.384 -1.42534,3.72267 l 0.648,-0.11467 c -0.0507,-0.29333 -0.056,-0.58 -0.0213,-0.85467 0.0427,-0.32933 0.152,-0.63733 0.30533,-0.92666 0.232,-0.44534 0.568,-0.83867 1.01734,-1.13067 0.96,-0.66133 2.15066,-1.03333 3.34266,-1.308 2.412,-0.532 4.93067,-0.68133 7.43334,-0.77333 3.94933,-0.10667 7.91333,0.004 11.88933,0.12533 -0.68133,0.66267 -1.53733,1.42667 -2.53467,2.27067 -2.40666,2.03866 -5.56,4.50533 -8.804,7.23866 l -0.828,0.144 c 0.028,0.14934 0.0493,0.33734 0.0747,0.49334 -1.09867,0.93733 -2.20533,1.90533 -3.29067,2.89866 -4.51066,4.13734 -8.82933,8.89334 -10.27466,13.456 -0.39334,1.108 -0.544,2.19467 -0.576,3.13867 -0.0187,0.94933 0.0733,1.78133 0.27333,2.42533 0.332,1.30534 0.78667,1.94267 0.74267,1.96 0.044,-0.009 -0.33467,-0.70666 -0.51067,-2.00533 -0.12,-0.644 -0.11467,-1.448 0.005,-2.33467 0.13467,-0.888 0.38667,-1.87733 0.87467,-2.868 1.82133,-4.07733 6.41333,-8.128 11.22667,-11.62 0.67333,-0.48933 1.35866,-0.94933 2.04266,-1.41866 2.068,17.008 1.91067,51.39733 -10.79733,69.09733 -2.396,3.332 -3.95333,9.91067 -6.116,19.024 -6.364,26.85066 -16.97067,71.452 -61.07866,77.21066 1.19733,-7.45466 2.84533,-13.99333 4.64666,-19.316 2.09867,-6.256 4.38667,-10.932 6.28934,-13.78133 0.912,-1.45733 1.796,-2.38267 2.36266,-2.94 0.59467,-0.48667 0.90534,-0.74267 0.90534,-0.74267 l -1.26934,-2.116 c 0,0 -0.43866,0.34267 -1.28933,1.008 -0.756,0.71067 -1.79467,1.804 -2.80667,3.368 -2.112,3.096 -4.52,7.91734 -6.76,14.32134 -2.24533,6.40266 -4.32533,14.38666 -5.65066,23.71733 -1.33867,9.25867 -1.95867,20.08667 -1.232,31.528 0.29066,5.764 0.78,11.65333 0.096,17.60933 -0.63867,5.94934 -2.26534,12.13867 -3.54534,18.62134 -0.70533,3.22266 -1.292,6.52 -1.91866,9.85333 -0.63867,3.33466 -1.25467,6.71066 -1.77334,10.11466 -1.056,6.788 -2.396,13.76934 -3.00666,21.048 -0.60667,7.24667 -0.712,14.71334 0.30266,22.232 0.80534,5.936 2.372,11.9548 5.064,17.54907 -0.18533,0.12813 -0.36533,0.25773 -0.52266,0.4296 -1.01067,1.14533 -1.288,3.24373 -1.22267,5.86933 -1.444,-2.33746 -3.34933,-4.3896 -5.788,-5.088 -1.64933,-0.47186 -3.304,0.17867 -4.708,1.8864 -2.08,2.524 -3.51733,7.06307 -4.15867,11.08547 -1.64666,-3.40373 -4.19466,-6.84013 -7.66,-7.83187 -1.57733,-0.452 -3.11066,0.024 -4.38,1.3584 -1.82133,1.91614 -2.92666,5.4588 -3.532,8.62027 -1.19866,-3.11093 -3.324,-6.64 -7.128,-7.7296 -1.89866,-0.55053 -3.81466,0.064 -5.38266,1.70667 -1.95734,2.05893 -3.16934,5.42973 -3.64534,8.13333 l -0.16533,-0.0692 -2.488,-1.38547 -0.62533,-0.34626 -0.308,-0.17094 -0.0453,-0.0291 -0.0987,-0.0709 -1.03734,-0.7864 c -2.77066,-2.0708 -4.99866,-4.74693 -6.512,-7.82973 -3.096,-6.20107 -3.27466,-13.63067 -2.7,-20.69707 0.70667,-7.13333 2.27867,-14.16 4.16,-21.00133 3.74934,-13.70133 8.64134,-26.67067 12.31334,-39.444 0.904,-3.20133 1.76533,-6.384 2.40933,-9.60933 0.356,-1.568 0.60933,-3.30667 0.852,-4.90533 l 0.26267,-2.332 0.12,-2.45734 c 0.35333,-6.364 -0.0227,-12.42533 -0.48,-18.204 -1.004,-11.55466 -2.56934,-21.992 -4.06267,-31.20266 -1.49333,-9.20667 -2.72533,-17.21334 -3.59467,-23.80267 -0.848,-6.552 -1.316,-11.82533 -1.22533,-15.188 -0.0747,-1.688 0.13867,-3.09867 0.20267,-4.01467 0.08,-0.92 0.12133,-1.4 0.12133,-1.4 l -2.82133,-0.324 c 0,0 -0.064,0.47334 -0.184,1.39067 -0.10267,0.928 -0.372,2.23867 -0.39067,4.144 -0.22267,3.20933 -0.056,7.50933 0.33733,12.804 -0.632,-0.572 -1.292,-1.19733 -2.012,-1.87867 -0.98533,-0.93733 -1.94,-2.01866 -2.95866,-3.068 -0.924,-1.10133 -1.88267,-2.20666 -2.724,-3.29066 -0.76667,-1.11467 -1.524,-2.15867 -2.12667,-3.07867 -1.032,-1.96133 -1.72,-3.26533 -1.72,-3.26533 0,0 0.37333,1.44933 0.93333,3.624 0.37467,1.05866 0.87734,2.276 1.39334,3.60933 0.58533,1.29067 1.28266,2.63733 1.968,4.004 0.76666,1.29867 1.496,2.652 2.276,3.844 0.76933,1.19867 1.48933,2.33067 2.16666,3.25733 0.47734,0.696 0.90134,1.264 1.27067,1.75734 -8.368,15.07333 -29.25867,33.94933 -50.72266,29.332 -0.816,-0.17334 -1.63334,-0.384 -2.452,-0.628 -0.60667,-2.416 -1.21334,-4.82934 -1.808,-7.18934 -3.27467,-12.34933 -6.33334,-23.87733 -8.956,-33.75333 -1.27334,-4.94267 -2.36134,-9.48267 -3.28534,-13.516 -0.9,-4.03467 -1.596,-7.56133 -2.064,-10.46933 -0.18933,-1.444 -0.41333,-2.764 -0.51066,-3.86 -0.0813,-1.08134 -0.14667,-2.004 -0.20134,-2.75067 0.0853,-1.596 0.13067,-2.44533 0.13067,-2.44533 l -2.30267,-0.18 c 0,0 -0.0587,0.852 -0.16533,2.44266 0.0413,0.84934 0.092,1.892 0.156,3.124 0.092,1.21067 0.29333,2.52 0.47333,4.032 0.436,2.98534 1.08534,6.576 1.93467,10.65867 0.86933,4.07867 1.896,8.66533 3.10133,13.64133 2.476,9.92 5.36,21.49334 8.45467,33.89334 0.728,3.096 1.47333,6.24533 2.22533,9.43466 0.65067,3.19867 1.596,6.46667 1.59067,9.45334 -0.016,6.11066 -2.82667,12.45466 -5.38533,18.67333 -2.648,6.25733 -5.324,12.63067 -7.38267,19.136 -2.11467,6.48667 -3.568,13.096 -4.43733,19.55866 -0.868,6.46934 -1.10534,12.78934 -0.932,18.75867 0.13066,5.976 0.84266,11.58267 1.592,16.72267 0.83066,5.12933 1.80266,9.796 2.832,13.88533 0.60666,2.49733 1.232,4.748 1.82266,6.80667 -0.55333,0.14133 -1.06933,0.416 -1.49866,0.868 -1.12667,1.1904 -1.62534,3.39613 -1.808,6.056 -1.43067,-2.54267 -3.43467,-4.84427 -6.22,-5.64014 -1.48934,-0.42253 -2.948,0.0267 -4.16267,1.3 -2.23333,2.35054 -3.444,7.3292 -3.96267,11.13854 -1.21066,-3.29054 -3.315997,-6.99427 -7.155997,-8.08907 -1.610667,-0.46667 -3.233333,0.0532 -4.617333,1.512 -2.118667,2.2308 -3.566667,6.57453 -4.24,10.09587 -1.205334,-3.1 -3.326667,-6.61614 -7.12,-7.69734 -1.894667,-0.54533 -3.816,0.0615 -5.378667,1.70934 -2.198666,2.30933 -3.458666,6.2708 -3.784,9.08693 -4.548,-1.19893 -8.746666,-3.31773 -11.422666,-7.03067 -9.625333,-13.34813 3.053333,-58.0148 11.442666,-87.57213 3.425334,-12.07066 6.386667,-22.48933 7.369334,-28.86666 2.135999,-13.79334 -4.48,-25.66267 -12.138667,-39.40267 -10.561333,-18.95067 -23.705333,-42.54267 -16.858666,-80.408 7.650666,-42.30933 50.486665,-66.69466 78.829336,-82.832 10.59866,-6.03066 18.99599,-10.81333 23.65199,-15.34133 0.0707,0.52933 0.15067,1.07067 0.248,1.63467 3.304,18.88266 22.848,57.40666 72.04134,65.31466 41.828,6.73067 60.86799,-6.95333 86.77999,8.00267 10.68,6.164 5.568,-16.55333 -6.10933,-32.34667 -5.69867,-7.71066 -13.128,-14.37466 -19.056,-20.18533 -12.13467,-18.99733 -23.15733,-53.29466 -21.46666,-77.752 0.756,-10.91733 3.92933,-18.612 9.43733,-22.876 l -1.70267,-2.20133 1.37333,-2.41867 c 0.003,0 -1.27599,-0.67866 -3.43866,-1.69333 -2.18667,-1.02533 -5.324,-2.40533 -9.156,-3.88667 -7.65067,-2.94666 -18.15333,-6.25866 -29.02267,-7.66533 -2.704,-0.38133 -5.43733,-0.588 -8.12133,-0.72133 -2.68933,-0.104 -5.33867,-0.08 -7.896,0.0853 -5.10933,0.336 -9.82533,1.272 -13.70667,2.51333 -0.964,0.33467 -1.88666,0.656 -2.76133,0.96267 -0.85333,0.36533 -1.65867,0.71467 -2.42133,1.044 -1.52,0.644 -2.74534,1.412 -3.80534,1.93733 -1.98933,1.264 -3.13066,1.98667 -3.13066,1.98667 0,0 1.18266,-0.64667 3.24666,-1.77733 1.08934,-0.45467 2.348,-1.13467 3.88667,-1.67467 0.77067,-0.27333 1.588,-0.56667 2.45067,-0.87333 0.88266,-0.24267 1.80666,-0.5 2.772,-0.768 3.88933,-0.97334 8.53866,-1.584 13.52933,-1.58934 2.49467,0 5.07067,0.14 7.67067,0.40934 l 0.18266,0.0267 c 7.888,3.71334 28.98534,15.43467 35.25734,36.90534 -0.06,0.63733 -0.14934,1.23733 -0.19467,1.892 -2.09733,30.34666 14.656,75.32933 29.84666,90.87199 7.208,7.37334 6.552,9.57334 6.45067,9.80267 -1.236,2.85067 -15.664,2.53067 -26.20933,2.30133 -5.952,-0.12933 -12.108,-0.268 -18.47733,-0.136 -67.568,1.47067 -80.24,-24.148 -99.54534,-62.80799 -1.536,-3.07467 -6,-4.83867 -11.168,-6.88 -3.07866,-1.216 -8.22666,-3.24934 -8.85333,-4.64267 -1.79333,-3.992 5.84934,-23.484 26.25867,-44.972 15.99466,-16.84133 58.852,-53.81467 111.19333,-33.464 l 2.29333,0.892 1.164,-2.16667 c 2.76,-5.12666 26.91867,-26.33466 41.48933,-19.976 11.76267,5.12934 18.144,3.24267 21.95734,2.11467 0.57333,-0.16933 1.32266,-0.392 1.71333,-0.44133 0.0693,0.0933 0.16933,0.24533 0.29467,0.48666 l 0.99466,-0.51333 c 2.70267,19.23067 0.38934,38.87733 -7.75333,54.316 l -0.18,0.344 0.024,0.384 c 0.34933,6.32933 3.19067,10.56 7.74267,11.99067 1.104,0.34533 2.27866,0.57733 3.57866,0.57733 h 0.003 c 1.96933,0 4.14667,-0.43067 6.48933,-1.24267 0.02,0.312 0.0413,0.64934 0.0547,1.03867 0.007,1.708 -0.224,4.27867 -1.96,6.60133 -0.87867,1.12267 -2.10133,2.172 -3.644,2.89067 -1.53067,0.73867 -3.34267,1.168 -5.24933,1.27467 -0.95734,0.0467 -1.93734,0.009 -2.92134,-0.11467 -0.98,-0.12133 -1.95866,-0.33333 -2.92266,-0.636 -1.93867,-0.65333 -3.71867,-1.556 -5.17867,-3.044 -1.46267,-1.404 -2.41867,-3.27067 -2.93467,-5.248 -0.52,-1.98133 -0.64133,-4.05333 -0.6,-6.05733 0.08,-4.01734 0.68534,-7.78134 0.86134,-11.04134 0.22266,-3.25333 -0.0507,-6.04933 -0.87867,-7.792 -0.77467,-1.77466 -1.776,-2.392 -1.72,-2.42 -0.056,0.024 0.91733,0.69334 1.59733,2.468 0.736,1.75067 0.87867,4.49867 0.51467,7.704 -0.31733,3.21867 -1.088,6.936 -1.36,11.044 -0.12667,2.048 -0.112,4.20934 0.35333,6.388 0.45867,2.16 1.44267,4.348 3.04267,6.032 1.51333,1.68667 3.65867,2.912 5.728,3.66267 0.95467,0.336 1.92933,0.56267 2.90267,0.74 1.19466,0.216 2.396,0.33733 3.58133,0.32267 2.14533,-0.0453 4.24133,-0.452 6.10133,-1.26534 1.86267,-0.788 3.44934,-2.02533 4.612,-3.42 2.31867,-2.88933 2.69067,-6.076 2.752,-8.07333 0,-1.02267 -0.032,-1.82267 -0.10266,-2.36 -0.02,-0.17333 -0.0293,-0.276 -0.044,-0.40133 0.95866,-2.16134 1.816,-4.30267 2.59733,-6.43334 12.88,-18.37333 13.61733,-50.26133 2.93867,-75.03733 -1.31734,-4.356 -2.90267,-8.61733 -4.708,-12.72 -5.30934,-12.148 -12.28267,-23.34266 -19.58667,-34.18133 -7.348,-10.82267 -15.22933,-21.216 -22.98267,-31.64667 -7.70933,-10.447996 -15.49733,-20.865329 -21.796,-32.083996 -3.092,-5.613333 -5.86933,-11.439999 -7.39466,-17.543999 -0.38667,-1.526667 -0.68534,-3.058667 -0.876,-4.602667 -0.116,-0.74 -0.14,-1.609333 -0.212,-2.246666 l -0.0187,-2.44 c -0.0333,-3.226667 0.36267,-6.189333 1.07467,-9.282667 0.70133,-3.049333 1.91733,-5.938666 3.344,-8.706666 1.52533,-2.725333 3.388,-5.245333 5.50133,-7.554667 2.16933,-2.26 4.59333,-4.277333 7.18667,-6.056 2.63333,-1.7333328 5.436,-3.2039994 8.34133,-4.4413327 2.91733,-1.2413333 5.98,-2.056 9.024,-2.4786666 3.10933,-0.4506667 6.30533,-0.5733333 9.452,-0.4 1.576,0.085333 3.10933,0.252 4.58667,0.5746666 0.25333,0.065333 0.52533,0.1533334 0.72266,0.2386667 l -0.068,0.1466667 -0.56666,1.0959999 c -0.408,0.816 -0.76934,1.86 -0.76267,2.968 -0.012,1.0733333 0.404,2.2026664 0.89067,3.0133334 0.98266,1.648 2.196,2.84 3.33866,4.024 l 1.65467,1.712 c 0.28133,0.292 0.55467,0.646666 0.74533,0.926666 -0.39733,-0.03867 -1.02133,-0.261333 -1.62666,-0.552 -2.71867,-1.328 -5.50934,-3.386666 -9.05734,-4.304 -3.69733,-0.797333 -7.23333,-0.07867 -10.46133,1.188 -3.224,1.304 -6.10933,3.249334 -8.61733,5.564 -4.956,4.638667 -8.71067,10.870667 -9.37067,17.92 l -0.068,1.392 0.0293,1.217333 c 0.02,0.814667 0.02,1.610667 0.152,2.505333 0.152,1.773334 0.51067,3.429334 0.89734,5.088 0.84133,3.305333 2.188,6.424 3.74,9.390667 0.14666,0.282666 0.324,0.542666 0.47466,0.82 6.15867,13.185333 18.964,26.574666 33.31867,41.547999 11.93467,12.449336 24.73467,25.805336 34.956,40.605336 l 0.0107,0.0187 c 23.356,33.83467 33.188,75.23467 -11.66667,130.66 l -0.0573,0.016 0.016,0.032 c -1.468,1.812 -2.97067,3.632 -4.556,5.476 l -0.18267,0.208 0.0147,0.27733 c 0.14666,3.12534 1.26666,5.48667 3.32666,7.02134 2.12,1.58266 4.85467,1.996 7.12667,1.996 0.53467,0 1.03467,-0.0253 1.50267,-0.0613 l 0.76133,0.84534 0.005,0.005 c 0.39334,0.38133 0.69867,0.77067 0.91867,1.09067 -0.35067,0.14 -0.812,0.29066 -1.30667,0.38533 m -0.58933,18.6 c -9.736,1.21333 -24.172,-8.04 -23.12933,-10.996 0.10533,-0.65467 2.22,-1.688 5,-1.748 2.368,2.71733 6.07733,6.796 7.07733,6.88533 -1.10133,-1.192 -2.56267,-4.15466 -3.58933,-6.41333 2.12,0.628 4.31466,1.956 6.152,4.444 2.49866,4.04 7.44533,7.828 8.48933,7.828 m -27.16267,23.38933 -0.02,-0.11867 0.264,-0.17066 z m -8.13733,294.88266 c 1.588,4.57333 3.12667,9.00667 4.41867,13.08267 -1.49467,-0.32934 -2.952,0.104 -4.11334,1.32533 -1.47866,1.55467 -2.38666,4.132 -2.92666,6.61613 -1.08534,-3.02946 -2.84934,-5.93613 -6.044,-6.8508 -1.71734,-0.49733 -3.46267,0.104 -4.99734,1.72134 -1.92266,2.02133 -3.33466,5.37733 -4.16266,8.37066 -0.78134,-3.1948 -2.24267,-6.692 -6.05734,-7.78133 -1.98266,-0.56133 -4.02133,0.13867 -5.83333,2.048 -2.38667,2.50773 -4.12933,6.81187 -4.48933,9.78373 -4.25067,-0.69573 -8.38,-1.70093 -12.128,-3.10613 -13.53067,-5.07347 -7.94267,-36.6056 -4.60267,-55.44293 1.95333,-11.016 2.848,-16.44267 1.83333,-19.30267 -3.772,-10.65466 -2.904,-19.784 -1.72666,-26.54666 2.26,-12.94934 -2.43734,-25.59467 -6.868,-34.95467 30.60133,-18.084 41.42666,-43.15467 44.64133,-62.87867 1.28667,16.01734 1.192,33.07467 0.852,52.46267 -0.18533,10.49467 0.384,18.28533 0.884,25.16 0.77067,10.60267 1.43333,19.752 -0.85333,35.23333 -2.704,18.26933 5.54533,41.99733 12.17333,61.06 m 8.21333,24.56947 c -1.16533,1.38533 -4.288,2.6 -6.68133,2.6 -0.91867,0 -1.644,-0.1776 -2.04933,-0.4896 -0.007,-2.83174 0.96533,-8.38254 2.83866,-10.3532 0.58,-0.608 1.01467,-0.608 1.16,-0.608 0.15067,0 0.31734,0.0267 0.48934,0.0827 2.244,0.72134 3.79333,3.39987 4.59733,7.95454 0.0493,0.28133 -0.20133,0.62653 -0.35467,0.8136 m -19.07866,5.35573 c -2.61334,0 -4.33467,-0.50267 -5.02267,-1.03853 0.112,-2.58027 1.80667,-8.5136 4.24,-11.072 0.80667,-0.848 1.508,-1.15734 2.22,-0.96534 3.556,1.01467 4.768,6.67214 5.49467,10.05347 l 0.27866,1.2104 c -0.232,0.6416 -3.14933,1.812 -7.21066,1.812 m -14.75734,0.69733 c -3.33733,0 -5.364,-0.77706 -5.87333,-1.388 0.0547,-2.0948 1.568,-6.4412 3.79467,-8.7828 0.71466,-0.7516 1.876,-1.6292 3.05333,-1.29426 3.27467,0.93693 4.032,5.0052 4.644,8.27706 0.12933,0.68547 0.24933,1.33494 0.39467,1.8188 -0.25067,0.49214 -2.47467,1.3692 -6.01334,1.3692 m -37.83599,-153.39986 -0.0667,-0.176 0.228,-0.076 -0.16133,0.252 m -12.336,159.71706 c 0.096,0.40414 -0.128,0.98694 -0.61734,1.6032 -1.2,1.5104 -3.54,2.74107 -5.21333,2.74107 -0.57467,0 -0.89733,-0.14947 -1.08267,-0.29213 -0.056,-0.6652 -0.16133,-1.53854 -0.28533,-2.52507 -0.78933,-6.32387 -0.79733,-9.81093 -0.0387,-10.36147 0.036,0 0.13734,0.005 0.32934,0.0787 3.15333,1.2104 6.17066,5.58547 6.908,8.75573 m -19.39734,8.89894 c -0.37466,0.0308 -0.748,0.0787 -1.11066,0.0787 -1.264,0 -1.944,-0.23066 -2.24134,-0.42653 -0.42533,-3.4136 1.19334,-11.57347 3.84,-14.7776 0.388,-0.46773 0.99867,-0.99067 1.796,-0.98547 3.92534,1.12294 6.58134,8.312 7.464,12.0188 l 0.005,0.13334 c -0.068,0.4016 -0.79334,0.9964 -1.89467,1.60253 -2.576,0.89747 -5.188,1.71773 -7.85867,2.35627 m -10.972,1.848 c -1.66533,0.16146 -3.34266,0.26146 -5.01466,0.31453 -1.608,-0.16147 -2.692,-0.53173 -3.192,-0.91613 0.02,-2.8276 1.14666,-9.312 3.34,-11.61307 0.62533,-0.65987 1.06666,-0.65987 1.21333,-0.65987 0.124,0 0.248,0.0199 0.38667,0.0557 3.96533,1.13493 6.84,7.56933 7.728,11.29746 -0.13734,0.3572 -1.076,0.8656 -2.55067,1.2708 -0.636,0.076 -1.26933,0.1932 -1.91067,0.25054 m -21.86133,-1.58907 c -0.71467,-0.24173 -1.39333,-0.48707 -2.07333,-0.74013 0.31333,-2.30414 1.392,-5.57507 3.024,-7.29067 0.85333,-0.8948 1.688,-1.21093 2.60533,-0.95107 4.44,1.26934 5.98533,7.924 6.52,9.99067 -0.104,0.1604 -0.58133,0.41507 -1.43733,0.62813 -2.94134,-0.2984 -5.84,-0.8172 -8.63867,-1.63693 m -27.10933,-62.1096 c -13.26534,4.76933 12.12,-34.196 -9.78667,-80.06666 5.45467,-0.88934 10.768,-2.46667 15.47733,-4.49334 5.576,5.12667 13.75067,22.98134 -5.69066,84.56 m -44.78,45.8064 c -1.07067,1.34427 -3.588,2.48133 -5.5,2.48133 -0.50933,0 -1.16133,-0.0824 -1.576,-0.4276 l -0.009,-0.1548 c -0.348,-6.42133 -0.009,-10.21613 1.236,-11.41186 0.0627,0 0.20133,0.0145 0.432,0.11293 1.59066,0.6896 5.07333,5.04013 5.82666,8.28547 0.0907,0.3812 -0.176,0.81453 -0.40933,1.11453 m -9.82533,2.81467 0.009,0.14426 c -0.16667,0.93587 -4.47067,2.90934 -8.93067,2.90934 -1.62533,0 -2.604,-0.29067 -3.05333,-0.60414 0.009,-3.12133 1.22133,-10.51306 3.52533,-12.9308 0.556,-0.58906 0.93334,-0.58906 1.056,-0.58906 l 0.32267,0.0453 c 3.53733,1.0136 5.964,6.33747 7.07067,11.02507 m -24.553337,6.476 c -1.818667,0 -3.021333,-0.3224 -3.552,-0.7 0.06667,-2.87294 1.621333,-9.28227 3.913333,-11.6932 0.654667,-0.69067 1.214667,-0.93854 1.84,-0.7584 3.892,1.11466 5.581333,6.548 6.506664,10.5292 -0.164,0.88546 -4.210664,2.6224 -8.707997,2.6224 m -12.069333,1.72813 c -3.546667,0 -6.444,-0.84013 -7.425333,-1.7 0.064,-2.23333 1.222666,-6.32653 3.118666,-8.3188 0.849334,-0.89733 1.690667,-1.20627 2.6,-0.94893 4.441333,1.26773 5.989333,7.92133 6.524,9.988 -0.2,0.30786 -1.688,0.97973 -4.817333,0.97973 m 237.6326,-522.06602 c 8.23334,3.792 17.97867,14.16 25.16,27.18533 7.26934,13.17867 22.17867,48.124 4.292,88.704 -2.45333,0.972 -4.676,1.46 -6.61333,1.46 -6.728,0 -8.244,-5.82 -8.52133,-9.56267 16.62,-31.94533 10.09066,-79.05466 -14.31734,-107.78666 m 39.636,61.86533 h 0.003 l 0.005,0.044 -0.008,-0.044 m -34.348,-118.245329 c 9.468,8.999999 19.22534,17.593329 28.508,26.627999 l 0.308,0.30933 c -0.404,0.19334 -0.75866,0.35467 -1.08666,0.492 -1.28667,0.54134 -1.976,0.632 -2.41734,0.472 -0.16666,-0.0627 -0.31066,-0.152 -0.424,-0.27866 -5.12266,-5.65734 -10.35066,-11.10934 -15.42133,-16.39867 -7.54533,-7.870666 -14.64533,-15.295999 -20.57867,-22.465332 3.596,3.877333 7.30934,7.623999 11.112,11.241333 m 34.43067,32.535999 c -0.136,0.068 -0.25733,0.12 -0.38267,0.17733 -2.26533,1.052 -3.35066,1.13734 -4.26,0.36534 -0.12933,-0.10934 -0.26,-0.232 -0.38666,-0.37867 l -0.001,0.003 c -0.99333,-1.144 -1.99733,-2.27734 -3.00266,-3.40267 0.91066,-0.16133 2.04133,-0.62133 3.45866,-1.328 1.53734,1.512 3.06534,3.02933 4.57467,4.564 m 5.20933,5.48 -0.37466,0.19333 c -1.71867,0.78534 -3.00667,0.988 -4.05334,0.68134 -0.292,-0.088 -0.584,-0.172 -0.84666,-0.34 -0.98934,-1.20134 -1.99467,-2.39467 -3.004,-3.58 1.188,-0.056 2.54,-0.608 4.10533,-1.396 1.416,1.46 2.78933,2.956 4.17333,4.44133 m 4.568,6.42533 c -1.50133,1.05467 -3.01733,1.556 -3.89866,1.24667 -0.14934,-0.052 -0.28534,-0.12533 -0.39734,-0.22933 l -0.036,0.044 c -1.3,-1.71467 -2.63066,-3.40667 -3.984,-5.08 l 0.256,0.0307 c 1.47867,0 3.028,-0.59333 4.50934,-1.35466 1.44933,1.57733 2.85466,3.192 4.25733,4.80666 -0.23333,0.19467 -0.46933,0.37067 -0.70667,0.536 m 3.924,5.93334 c -1.436,0.856 -3.052,1.69866 -3.672,1.46933 -0.04,-0.0133 -0.10266,-0.036 -0.15466,-0.204 l -0.664,0.204 0.69066,-0.22667 c -1.048,-1.504 -2.12,-2.99466 -3.21733,-4.472 1.39067,-0.0627 3.06933,-0.84 4.69467,-2.2 1.276,1.49734 2.53733,3.00534 3.764,4.54 -0.416,0.26667 -0.91467,0.57467 -1.44134,0.88934 m 5.11067,5.30933 c -1.59733,1.08933 -3.27733,1.496 -4.56267,1.368 -0.304,-0.0333 -0.58266,-0.088 -0.83333,-0.17733 -0.79867,-1.25334 -1.62667,-2.49467 -2.468,-3.728 1.31333,-0.28 2.984,-1.24534 5.04667,-2.55467 1.188,1.51067 2.38666,3.008 3.51733,4.55867 -0.232,0.19466 -0.46533,0.372 -0.7,0.53333 m 4.62533,5.15733 c -0.61866,0.31867 -1.192,0.60134 -1.74133,0.85334 -1.42933,0.65733 -2.63867,1.044 -3.71733,1.004 -0.40534,-0.0187 -0.79867,-0.0813 -1.17334,-0.22934 -0.78,-1.35066 -1.58266,-2.692 -2.408,-4.024 l 0.31734,0.0293 c 1.712,0 3.75066,-0.708 5.596,-2.21734 1.076,1.50667 2.11866,3.036 3.12666,4.584 m 2.028,6.712 c -3.06133,1.35334 -4.44,1.48267 -5.032,1.27067 -0.13466,-0.0453 -0.24,-0.10267 -0.30666,-0.17067 -0.77067,-1.54133 -1.57334,-3.068 -2.412,-4.58 0.13466,0.0107 0.264,0.0387 0.40133,0.0387 1.77467,0 3.71733,-0.888 6.07867,-2.10133 1.00533,1.57066 1.97866,3.16133 2.908,4.77333 -0.592,0.292 -1.136,0.54533 -1.63734,0.76933 m 4.028,5.96934 c -2.372,1.15733 -4.732,2.06133 -6.07733,1.556 -0.14933,-0.0547 -0.292,-0.11867 -0.41467,-0.21067 -0.65066,-1.536 -1.34533,-3.05733 -2.068,-4.56667 l 0.052,0.008 c 1.47734,0 3.704,-0.788 6.812,-2.32133 0.93067,1.66133 1.81067,3.352 2.65467,5.05733 -0.31733,0.16134 -0.63467,0.32134 -0.95867,0.47734 m 4.04934,7.608 c -1.85334,0.792 -3.67467,1.244 -5.21467,1.452 -0.91867,0.124 -1.72533,0.16533 -2.376,0.13866 -0.68,-2.08533 -1.43333,-4.14133 -2.252,-6.172 0.18267,0.024 0.348,0.08 0.54933,0.08 1.948,0 4.40667,-1.11333 6.808,-2.332 1.04534,2.18 2.02534,4.388 2.908,6.63734 -0.14133,0.0627 -0.28266,0.136 -0.42266,0.196 m -19.376,80.78533 c 1.40533,1.95733 4.84666,4.81466 9.24666,6.072 -1.032,1.84666 -2.07466,3.68266 -3.16533,5.49733 -5.05333,-1.1 -8.66933,-4.70267 -9.41333,-6.168 1.17333,-1.81867 2.27733,-3.61733 3.332,-5.40133 m 3.58933,-6.40934 c 1.44267,1.98267 4.87067,4.57467 9.424,5.432 -0.396,0.796 -0.78,1.6 -1.18533,2.39067 -0.61067,1.172 -1.28534,2.30667 -1.92267,3.464 -4.816,-1.24667 -8.40267,-4.68133 -9.12667,-6.20133 0.988,-1.70667 1.92667,-3.40534 2.81067,-5.08534 m 3.86933,-8.01866 c 1.53734,1.976 4.90534,4.448 9.332,5.236 -0.988,2.316 -2.024,4.61733 -3.12,6.88666 -5.04,-0.83733 -8.668,-3.996 -9.34133,-5.544 1.13067,-2.22 2.172,-4.412 3.12933,-6.57866 m 2.86667,-7.12934 c 1.71867,1.70134 5.22667,3.604 9.612,4.25067 -0.796,2.276 -1.65867,4.536 -2.58133,6.77333 -4.90534,-0.75066 -8.39867,-3.74 -9.24,-5.38533 0.80666,-1.90133 1.53466,-3.77733 2.20933,-5.63867 m 2.21067,-6.796 c 1.91333,1.50134 5.656,2.8 9.95333,2.81467 -0.61733,2.32133 -1.33067,4.62133 -2.10133,6.90267 -4.92,-0.65467 -8.46267,-3.01867 -9.52,-4.41334 0.61866,-1.78666 1.168,-3.552 1.668,-5.304 m 1.56933,-6.23866 c 0.31333,0.228 0.676,0.44266 1.132,0.64133 1.64267,0.71867 4.31333,1.26933 7.03733,1.26933 0.616,0 1.23067,-0.04 1.83867,-0.0987 -0.36667,1.95066 -0.792,3.88533 -1.276,5.812 -4.524,0.0453 -8.504,-1.39867 -9.876,-2.88267 0.43067,-1.59333 0.80533,-3.172 1.144,-4.74133 m 11.66533,-14.93067 c -2.94666,0.856 -6.748,1.076 -8.78133,0.55067 -0.63867,-0.16534 -0.89467,-0.356 -0.97467,-0.45867 0.0747,-1.84267 0.092,-3.67333 0.0427,-5.476 1.00533,0.24267 2.06933,0.40133 3.21333,0.40133 2.12534,0 4.33867,-0.41466 6.28,-1.04933 0.14134,2.00667 0.224,4.01867 0.22,6.032 m -0.356,7.50933 c -4.02133,0.78134 -7.872,0.604 -9.50666,-0.244 -0.19467,-0.0973 -0.33867,-0.20666 -0.44534,-0.312 0.21867,-1.79733 0.38,-3.576 0.484,-5.332 0.22134,0.0933 0.41067,0.204 0.69334,0.276 0.86,0.22267 1.972,0.332 3.19466,0.332 1.88667,0 4.00934,-0.29066 5.92267,-0.812 -0.0387,2.036 -0.16267,4.064 -0.34267,6.092 m -0.94933,7.42134 c -0.024,0.12933 -0.0507,0.25466 -0.0747,0.38266 -3.15066,0.4 -6.70133,-0.18533 -8.59466,-1.01333 -0.884,-0.38667 -1.276,-0.756 -1.35334,-0.964 0.32134,-1.632 0.58534,-3.24267 0.80934,-4.844 l 0.0147,0.009 c 1.17067,0.60667 3.032,0.90134 5.172,0.90134 1.524,0 3.18667,-0.164 4.844,-0.46 -0.212,2.00266 -0.464,4.00266 -0.81733,5.988 m -6.99467,-27.904 c 2.13334,0 4.73067,-0.74134 7.056,-1.66534 0.41334,2.392 0.72134,4.796 0.924,7.21334 -3.05466,1.07066 -6.86933,1.352 -9.444,0.612 -0.0947,-2.18267 -0.26933,-4.34134 -0.52933,-6.468 0.58933,0.19733 1.25067,0.308 1.99333,0.308 m -2.552,-7.944 0.344,0.008 c 2.13734,0 5.2,-0.724 7.46267,-1.84667 0.61867,2.224 1.11333,4.47867 1.54267,6.74133 -3.98267,1.63867 -7.688,2.13734 -9.02134,1.08267 -0.29466,-2.06133 -0.66133,-4.09733 -1.10533,-6.10533 0.252,0.0427 0.46933,0.10933 0.77733,0.12 m 7.39334,-3.192 c -2.15067,1.11333 -5.36134,1.88 -7.33734,1.80266 -0.69466,-0.0267 -1.02,-0.144 -1.17333,-0.22266 -0.45733,-1.93867 -0.98533,-3.85067 -1.57333,-5.74 2.008,-0.0187 5.036,-0.52533 8.05466,-1.87733 0.74667,1.988 1.428,3.99866 2.02934,6.03733 m -19.832,90.98933 c -5.39067,-0.99467 -9.02667,-5.12667 -9.48667,-6.51067 0.98133,-1.40533 1.92933,-2.8 2.84133,-4.184 1.396,2.008 4.924,4.952 9.49867,6.10667 -0.94267,1.53733 -1.872,3.07733 -2.85333,4.588 m -10.908,15.44533 c -5.456,-0.808 -9.70934,-4.71333 -10.592,-6.428 0.98,-1.16266 1.944,-2.32 2.88133,-3.468 1.54933,2.208 5.308,5.49067 10.42667,6.224 -0.9,1.22934 -1.79734,2.46 -2.716,3.672 m -1.76667,2.33867 c -2.20933,0.116 -5.12667,-0.0907 -7.248,-1.66933 -1.64933,-1.232 -2.576,-3.14934 -2.752,-5.704 l 0.23333,-0.27467 c 1.44534,2.16933 5.44134,5.58133 10.58934,6.576 z m 5.40933,-7.26 c -5.428,-0.45333 -9.31866,-4.208 -10.46266,-6.08533 1.076,-1.33734 2.12266,-2.66534 3.132,-3.98667 1.54,2.13067 5.27733,5.17467 10.20933,6.02267 -0.94933,1.35733 -1.904,2.71066 -2.87867,4.04933 m 3.792,-5.38533 c -5.16266,-0.67734 -9.16933,-4.01467 -10.23466,-5.83734 1.14666,-1.52133 2.256,-3.028 3.32133,-4.52666 1.24667,2.02133 4.744,5.35333 9.588,6.44933 -0.86667,1.32 -1.78133,2.612 -2.67467,3.91467 m 47.396,-119.60667 -3.43733,-4.76933 0.936,5.80933 c 3.56133,21.99067 -2.17734,44.83333 -14.45467,63.35467 l -0.88666,0.24666 c 0.0813,-0.472 0.18133,-0.936 0.25466,-1.408 2.06,-13.128 1.476,-26.76 -2.184,-39.57199 -3.652,-12.82534 -10.11333,-24.63467 -17.88533,-35.24934 -7.78533,-10.648 -16.88,-20.16933 -26.28133,-29.228 C 344.133,102.18713 334.30766,93.62446 324.87033,84.745794 320.153,80.304461 315.545,75.767128 311.261,70.975128 c -4.25867,-4.797334 -8.26134,-9.852 -11.21867,-15.426667 -1.47467,-2.778666 -2.732,-5.669333 -3.51333,-8.673333 -0.35734,-1.506666 -0.692,-3.030666 -0.828,-4.505333 -0.12534,-0.713333 -0.13067,-1.545333 -0.156,-2.358667 l -0.0347,-1.217333 0.0507,-1.048 c 0.508,-5.997333 3.82666,-11.724 8.30133,-15.926666 2.25467,-2.104 4.84533,-3.86 7.656,-5.013333 2.76533,-1.136 5.93067,-1.686667 8.62,-1.102667 2.81733,0.690667 5.42133,2.524 8.51733,4.058667 0.81467,0.36 1.64134,0.772 2.892,0.848 0.652,-0.0013 1.33334,-0.048 2.156,-0.676 l 0.24667,-0.221334 c 0.32133,-0.345333 0.37733,-0.434666 0.52,-0.74 0.252,-0.534666 0.22133,-1.102666 0.136,-1.496 -0.45467,-1.476 -1.12,-1.970666 -1.68667,-2.673333 -0.58933,-0.64 -1.176,-1.216 -1.744,-1.789333 -1.12133,-1.134667 -2.23066,-2.272 -2.916,-3.4320002 -0.668,-1.0813333 -0.68,-2.0573332 -0.036,-3.2999999 l 0.55867,-1.0666666 c 0.176,-0.4293333 0.54133,-0.9 0.468,-1.9826666 -0.0547,-0.5333333 -0.37067,-1.072 -0.688,-1.3693333 -0.30267,-0.2866667 -0.61333,-0.4786667 -0.86933,-0.5973333 -0.53467,-0.26 -0.97867,-0.38533337 -1.46534,-0.5146667 -1.7,-0.37999999 -3.40666,-0.56533332 -5.07466,-0.66266665 -3.35067,-0.19199999 -6.68934,-0.076 -10.01734,0.39199999 -3.39866,0.46133332 -6.66133,1.34399996 -9.744,2.63999996 -3.08533,1.2946666 -6.068,2.8426666 -8.876,4.6839999 -2.77733,1.8866666 -5.38266,4.0373334 -7.72933,6.4626664 -2.28933,2.481333 -4.324,5.205333 -5.98667,8.16 -1.56666,2.997333 -2.89333,6.142666 -3.668,9.445333 -0.42133,1.638667 -0.67466,3.305333 -0.916,4.988 -0.124,1.697333 -0.36,3.464 -0.28533,5.052 l 0.0107,2.438666 c 0.076,0.981334 0.10266,1.741334 0.22666,2.609334 0.20134,1.690666 0.516,3.351999 0.924,4.983999 1.616,6.546667 4.48667,12.577333 7.636,18.352 6.39467,11.52 14.07334,22.119999 21.69467,32.671999 7.65067,10.53733 15.38267,20.976 22.528,31.764 7.15333,10.76667 13.672,21.97067 18.58267,33.776 1.312,3.17467 2.48266,6.39733 3.5,9.65733 -1.504,-3.47066 -2.98667,-6.40133 -4.244,-8.68 -9.12267,-16.54533 -21.90934,-28.61333 -31.82267,-30.03466 l -4.01067,-0.576 2.81067,2.91866 c 12.22267,12.68267 20.37333,30.37467 23.92,48.85867 -1.28267,-0.0293 -2.55467,0.31866 -3.652,0.644 -3.284,0.97066 -8.24933,2.44 -18.15333,-1.88 -16.63867,-7.24934 -40.46934,11.74133 -47.22267,20.388 -54.53066,-19.828 -98.62133,18.16266 -115.176,35.596 -18.81199,19.80533 -31.05999,42.724 -27.30266,51.08933 1.55467,3.452 6.57333,5.43467 11.88533,7.532 2.85333,1.13067 7.63067,3.01733 8.23467,4.192 1.25866,2.52266 2.49866,4.996 3.72666,7.42533 -2.888,4.196 -12.77333,9.82933 -24.10266,16.27867 -29.245334,16.64933 -73.438666,41.808 -81.553333,86.67733 -0.436,2.404 -0.786666,4.748 -1.074666,7.04533 -0.206667,0.17734 -0.516,0.39867 -0.956,0.62534 -1.796,1.01733 -5.950667,2.092 -11.090667,1.84 -2.564,-0.116 -5.374666,-0.52267 -8.157333,-1.39467 -2.754666,-0.856 -5.604,-2.20133 -7.753333,-4.05333 -2.205333,-1.88934 -4.0013331,-4.52 -4.9866664,-7.60934 -0.9786667,-3.08 -1.1773333,-6.57066 -0.4413333,-9.944 0.7146666,-3.37466 2.3079997,-6.62533 4.5986667,-9.324 2.253333,-2.66666 5.326666,-4.97466 8.313333,-6.452 3.048,-1.444 6.368,-2.03333 9.208,-1.07066 2.850666,0.89333 5.037333,3.18 6.06,5.71333 1.085333,2.54533 0.969333,5.276 0.165333,7.416 -0.869333,2.136 -2.365333,3.66933 -3.794667,4.60133 -1.432,0.94534 -2.737333,1.424 -3.626666,1.69734 -0.908,0.252 -1.390667,0.38266 -1.390667,0.38266 0,0 0.494667,-0.0827 1.428,-0.236 0.92,-0.18666 2.286667,-0.52666 3.882667,-1.356 1.582666,-0.81866 3.386666,-2.276 4.617333,-4.584 1.158666,-2.30933 1.641333,-5.44533 0.677333,-8.6 -0.896,-3.12266 -3.26,-6.30933 -6.906666,-7.904 -3.636,-1.66666 -8.056,-1.316 -11.909333,0.056 -0.966667,0.35734 -1.909334,0.75067 -2.861334,1.22134 -0.926666,0.492 -1.948,1.00933 -2.712,1.52 l -1.232,0.776 -1.371999,0.97733 c -0.853334,0.652 -1.6800005,1.34933 -2.4760004,2.09867 -3.1826666,2.99333 -5.7279999,6.88933 -7.1759999,11.23466 -1.47466658,4.344 -1.80533324,9.13067 -0.90533326,13.716 0.88799996,4.58534 3.10133326,8.94134 6.23733316,12.34 3.2173333,3.448 6.9079994,5.628 10.5519994,7.268 3.653334,1.612 7.270667,2.56134 10.677333,3.11467 4.56,0.71333 8.726667,0.668 12.408,0.0707 -0.07867,27.82133 10.573333,46.95199 19.470666,62.91999 7.158667,12.848 13.341333,23.93867 11.5,35.844 -0.937333,6.03467 -3.850667,16.304 -7.222666,28.19734 -9.716,34.21866 -21.804,76.81213 -10.602667,92.34653 5.104,7.0776 14.878666,10.7896 28.029333,10.7896 3.2,0 6.601333,-0.2204 10.178666,-0.66254 11.602664,-1.44173 25.232004,-5.4672 31.476004,-9.6896 1.98,-0.5896 3.884,-1.72546 4.98,-3.10786 1.12133,-1.40934 1.13466,-2.664 0.944,-3.47334 -0.36667,-1.5828 -1.26,-3.4068 -2.35734,-5.09333 -0.348,-0.97333 -0.71733,-2.0484 -1.09466,-3.26973 -0.24134,-0.75054 -0.49867,-1.55307 -0.756,-2.39574 -0.71334,-2.28133 -1.49067,-4.87333 -2.23734,-7.77333 -1.05866,-3.94933 -2.06666,-8.452 -2.94666,-13.39867 -0.79867,-4.95466 -1.564,-10.352 -1.77067,-16.08933 -0.25467,-5.73067 -0.12,-11.792 0.62,-18.004 0.744,-6.208 2.03867,-12.56533 3.98267,-18.868 1.90266,-6.32 4.41466,-12.572 6.984,-18.90266 1.22533,-3.19067 2.58666,-6.416 3.632,-9.78667 1.032,-3.32 1.756,-6.77867 1.74266,-10.48 -0.0253,-0.92267 -0.0707,-1.83867 -0.208,-2.60133 5.57333,2.58533 12.08533,3.52666 18.708,3.292 5.972,7.95333 10.19333,40.57466 9.09867,59.13599 -1.12534,19.12934 -13.99734,38.608 -2.86534,46.608 7.18534,5.168 12.156,5.39867 14.78667,4.91334 -0.12933,2.876 -0.0853,5.78946 0.22533,8.71866 0.40267,3.8984 1.36,7.87187 3.21067,11.53587 1.81733,3.67347 4.56267,6.94693 7.87333,9.38707 l 1.24,0.9208 0.156,0.11773 0.29467,0.16667 0.312,0.176 0.62533,0.34266 2.49334,1.37454 c 1.78666,0.81973 3.84533,1.60933 5.756,2.22546 7.73733,2.21987 15.768,2.4292 23.56533,1.6516 7.82,-0.78493 15.452,-2.69173 22.772,-5.57866 1.81333,-0.8036 3.62933,-1.5744 5.38533,-2.61974 0.888,-0.44373 1.75467,-1.10426 2.61467,-1.72133 0.43067,-0.26667 0.86267,-0.68653 1.28267,-1.14533 l 0.62533,-0.67094 0.152,-0.164 c 0.136,-0.20933 -0.0907,0.22814 0.344,-0.512 l 0.15467,-0.34893 c 0.152,-0.43907 0.21733,-0.97867 0.172,-1.44173 -0.0493,-0.25467 -0.11467,-0.51187 -0.19067,-0.76347 -0.15333,-0.4084 -0.33467,-0.76147 -0.5,-1.0188 -0.17067,-0.27867 -0.336,-0.52547 -0.50133,-0.74947 -0.992,-2.97346 -3.25734,-6.34946 -6.05067,-8.3588 -3.404,-5.8224 -5.32933,-12.43586 -6.26267,-19.11186 -0.99333,-7.11467 -0.93866,-14.32 -0.38133,-21.356 0.55867,-7.02534 1.84133,-13.92534 2.88,-20.77467 0.50533,-3.42533 1.10133,-6.76667 1.71733,-10.06133 0.60267,-3.29867 1.16934,-6.56133 1.856,-9.76933 1.22667,-6.408 2.876,-12.63734 3.472,-19.008 0.65067,-6.36534 0.0587,-12.45734 -0.28933,-18.12934 -0.80133,-10.748 -0.38667,-20.41866 0.65333,-29.16933 2.372,-0.26133 4.65334,-0.62667 6.85867,-1.08533 0.6,1.73466 1.72,3.95066 3.148,6.73733 4.488,8.78 12.00533,23.48 9.504,37.82933 -1.29733,7.432 -2.24667,17.48534 1.95733,29.36133 0.55867,1.67467 -0.83333,9.53734 -2.06266,16.47467 -3.88,21.86933 -9.74,54.92653 8.12933,61.62547 8.55333,3.20373 19.096,4.6172 28.976,4.6172 12.92933,0 24.72133,-2.41867 29.4,-6.39894 2.86266,-2.43173 2.84133,-5.0292 2.57466,-6.35986 -1.308,-6.5572 -4.13333,-14.68654 -7.40933,-24.10254 -6.428,-18.49066 -14.428,-41.50666 -11.924,-58.41866 2.37733,-16.08933 1.69067,-25.52667 0.89867,-36.45333 -0.516,-7.088 -1.04934,-14.42 -0.868,-24.66 0.49066,-28.168 0.53066,-51.536 -3.51867,-74.044 0.58533,-2.37067 1.128,-4.644 1.63067,-6.76133 1.85866,-7.84534 3.46533,-14.62267 5.216,-17.06267 5.60266,-7.79867 8.97066,-18.30667 10.848,-29.25733 15.11733,-3.864 50.468,0.016 40.776,-11.35867 -12.88534,-17.61467 -24.67734,-27.284 -28.65467,-43.16267 0.26667,-0.27066 0.47067,-0.46 0.74,-0.80266 0.31067,-0.412 0.58133,-0.85467 0.72,-1.112 l 0.124,-0.252 c 3.93867,0.10266 7.888,0.17733 11.88133,0.012 2.58,-0.12134 5.176,-0.32134 7.80934,-0.81067 2.6,-0.54933 5.37333,-1.15333 7.916,-3.33333 v -0.003 l 0.85733,-0.752 -0.26533,-1.184 c -0.204,-0.89733 -0.744,-1.44933 -1.13734,-1.772 -0.42933,-0.34667 -0.76933,-0.50267 -1.11066,-0.66933 -0.65734,-0.28934 -1.22534,-0.444 -1.78,-0.58534 -1.104,-0.268 -2.13867,-0.436 -3.16134,-0.58533 l -0.7,-0.0853 c -4.70533,-4.14667 -9.072,-12.48533 -9.33866,-16.12 0.492,-0.024 0.98,-0.0347 1.47866,-0.0667 1.07067,-0.088 2.16134,-0.21066 3.30534,-0.43733 1.14266,-0.25067 2.348,-0.508 3.80266,-1.44 0.70534,-0.46667 1.61467,-1.34267 1.996,-2.64133 0.38267,-1.30134 0.0933,-2.472 -0.21733,-3.25467 -0.256,-0.60133 -0.536,-1.08133 -0.82667,-1.51067 4.60667,-6.29733 8.956,-12.78933 12.95867,-19.512 29.40666,-18.73333 39.97466,-43.53733 43.58533,-61.276 4.616,-22.66133 -0.25867,-42.65066 -6.74,-51.63333"
       style="display:inline;fill:#231f20;fill-opacity:1;fill-rule:nonzero;stroke:none;stroke-width:0.133333"
       id="path477-3"
       transform="matrix(0.75000002,0,0,-0.75000002,146.47153,582.62035)" />
  </g>
</svg>
